<svg xmlns="http://www.w3.org/2000/svg" width="61" height="32" viewBox="0 0 61 32" fill="none">
<path fill-rule="evenodd" clip-rule="evenodd" d="M45.1724 0C36.431 0 29.3447 7.16344 29.3447 16C29.3447 24.8366 36.431 32 45.1724 32C53.9137 32 61 24.8366 61 16C61 7.16344 53.9137 0 45.1724 0ZM0.168704 3.1661C-0.311825 2.3213 0.291412 1.26722 1.25542 1.26722L11.2757 1.26721H20.8863L29.3755 1.26722C30.2696 1.26722 30.8763 2.18649 30.5329 3.02108L19.323 30.266C19.1285 30.7386 18.6719 31.0466 18.1656 31.0466H7.07798C6.1838 31.0466 5.57715 30.1273 5.92055 29.2927L9.26936 21.1537C9.56859 20.4264 9.51632 19.5999 9.12793 18.917L0.168704 3.1661ZM31.3327 1.00337C31.3327 0.992838 31.3433 0.985694 31.3529 0.989738C31.3603 0.992869 31.3638 1.00151 31.3607 1.00903C31.3546 1.02394 31.3327 1.01951 31.3327 1.00337Z" fill="#CCFF00"/>
</svg>