<svg width="33" height="33" viewBox="0 0 33 33" fill="none" xmlns="http://www.w3.org/2000/svg">
<g clip-path="url(#clip0_1184_44569)">
<mask id="mask0_1184_44569" style="mask-type:alpha" maskUnits="userSpaceOnUse" x="0" y="0" width="33" height="34">
<path d="M0 0.00012207H33V33.0001H0V0.00012207Z" fill="white"/>
</mask>
<g mask="url(#mask0_1184_44569)">
<path fill-rule="evenodd" clip-rule="evenodd" d="M16.5 0.00012207C25.6129 0.00012207 33 7.38725 33 16.5001C33 25.6122 25.6129 33.0001 16.5 33.0001C7.38712 33.0001 0 25.6122 0 16.5001C0 7.38725 7.38712 0.00012207 16.5 0.00012207Z" fill="#2775CA"/>
</g>
<path fill-rule="evenodd" clip-rule="evenodd" d="M13.4073 27.972C13.4073 28.3601 13.1033 28.5806 12.7279 28.4634C7.73913 26.8719 4.12207 22.194 4.12207 16.6744C4.12207 11.1549 7.73913 6.47681 12.7279 4.88531C13.1033 4.76887 13.4073 4.98862 13.4073 5.37674V6.33487C13.4073 6.59324 13.207 6.89737 12.9608 6.98155C9.01376 8.43093 6.18626 12.2227 6.18626 16.6678C6.18626 21.1129 9.01376 24.9054 12.9608 26.3541C13.207 26.4448 13.4073 26.7422 13.4073 27.0015V27.972Z" fill="white"/>
<path fill-rule="evenodd" clip-rule="evenodd" d="M17.5292 24.4066C17.5292 24.6916 17.2963 24.9244 17.0117 24.9244H15.9827C15.6981 24.9244 15.4652 24.6916 15.4652 24.4066V22.7763C13.2133 22.4723 12.1136 21.2103 11.8159 19.4958C11.7639 19.2042 11.9968 18.9391 12.2946 18.9391H13.4722C13.7181 18.9391 13.9252 19.114 13.977 19.3594C14.1971 20.3819 14.7859 21.1649 16.5909 21.1649C17.9239 21.1649 18.8689 20.4207 18.8689 19.3083C18.8689 18.1949 18.3122 17.7745 16.3581 17.4507C13.4722 17.0626 12.1071 16.1888 12.1071 13.9242C12.1071 12.1773 13.4272 10.8186 15.4717 10.5273V8.92901C15.4717 8.6442 15.7048 8.41113 15.9892 8.41113H17.0182C17.3029 8.41113 17.5357 8.6442 17.5357 8.92901V10.5726C19.1987 10.8708 20.2534 11.8148 20.5965 13.3806C20.661 13.6788 20.4281 13.9564 20.1242 13.9564H19.0369C18.804 13.9564 18.6099 13.801 18.5389 13.5747C18.2477 12.5787 17.5357 12.1518 16.2997 12.1518C14.9346 12.1518 14.2292 12.8116 14.2292 13.7367C14.2292 14.7138 14.6306 15.2052 16.7272 15.5099C19.5609 15.898 21.0236 16.7067 21.0236 19.1208C21.0236 20.9517 19.6646 22.4335 17.5357 22.7763V24.4066H17.5292Z" fill="white"/>
<path fill-rule="evenodd" clip-rule="evenodd" d="M20.2721 28.4635C19.8971 28.5807 19.5928 28.3602 19.5928 27.9721V27.0147C19.5928 26.7299 19.7675 26.4647 20.0392 26.3672C23.9863 24.9179 26.8138 21.1261 26.8138 16.681C26.8138 12.2359 23.9863 8.44412 20.0392 6.99474C19.7934 6.90399 19.5928 6.60662 19.5928 6.34731V5.38993C19.5928 5.00181 19.8971 4.77549 20.2721 4.89774C25.2609 6.49018 28.878 11.1681 28.878 16.6876C28.8718 22.1939 25.2609 26.8654 20.2721 28.4635Z" fill="white"/>
</g>
<defs>
<clipPath id="clip0_1184_44569">
<rect width="33" height="33" fill="white"/>
</clipPath>
</defs>
</svg>
