<svg width="33" height="33" viewBox="0 0 33 33" fill="none" xmlns="http://www.w3.org/2000/svg">
<g clip-path="url(#clip0_1184_43729)">
<path d="M32.9706 16.4942C32.9706 25.5618 25.6203 32.9121 16.5527 32.9121C7.48539 32.9121 0.134766 25.5618 0.134766 16.4942C0.134766 7.42676 7.48539 0.0762939 16.5527 0.0762939C25.6203 0.0762939 32.9706 7.42676 32.9706 16.4942Z" fill="#1BA27A"/>
<path d="M24.258 8.35522H8.71191V12.1084H14.6084V17.6248H18.3615V12.1084H24.258V8.35522Z" fill="white"/>
<path d="M16.5209 18.2124C11.6432 18.2124 7.68858 17.4404 7.68858 16.488C7.68858 15.5358 11.643 14.7636 16.5209 14.7636C21.3987 14.7636 25.3531 15.5358 25.3531 16.488C25.3531 17.4404 21.3987 18.2124 16.5209 18.2124ZM26.4382 16.7755C26.4382 15.5474 21.9981 14.552 16.5209 14.552C11.0439 14.552 6.60352 15.5474 6.60352 16.7755C6.60352 17.8569 10.0465 18.7579 14.6089 18.9576V26.8766H18.3617V18.9607C22.9592 18.7673 26.4382 17.8625 26.4382 16.7755Z" fill="white"/>
</g>
<defs>
<clipPath id="clip0_1184_43729">
<rect width="33" height="33" fill="white"/>
</clipPath>
</defs>
</svg>
