<svg width="440" height="464" viewBox="0 0 440 464" fill="none" xmlns="http://www.w3.org/2000/svg">
<g clip-path="url(#clip0_2_27)">
<path d="M0 0H440V344C440 410.274 386.274 464 320 464H120C53.7258 464 0 410.274 0 344V0Z" fill="#B6CCC7"/>
<g filter="url(#filter0_dn_2_27)">
<rect x="50.6036" y="264.203" width="349.377" height="90.24" rx="10.6517" transform="rotate(-11.0197 50.6036 264.203)" fill="white" shape-rendering="crispEdges"/>
<rect x="76.0591" y="283.469" width="42.6872" height="42.6872" rx="8.52138" transform="rotate(-11.0197 76.0591 283.469)" fill="#403C3C" fill-opacity="0.1"/>
<path d="M102.744 308.699L95.2335 303.671M102.744 308.699L107.772 301.188M102.744 308.699L100.572 297.727M99.4339 291.98L99.9511 294.593" stroke="#403C3C" stroke-width="1.59776" stroke-linecap="round" stroke-linejoin="round"/>
<path d="M138.718 286.899L136.723 276.653L139.738 276.065C140.939 275.832 141.965 275.85 142.818 276.119C143.678 276.377 144.369 276.855 144.89 277.554C145.419 278.241 145.788 279.121 145.997 280.194C146.202 281.248 146.188 282.193 145.956 283.028C145.733 283.862 145.272 284.559 144.571 285.121C143.88 285.681 142.934 286.078 141.734 286.312L138.718 286.899ZM139.748 285.635L141.505 285.293C142.5 285.099 143.259 284.784 143.782 284.348C144.303 283.902 144.631 283.352 144.767 282.698C144.901 282.033 144.887 281.282 144.723 280.442C144.556 279.584 144.286 278.872 143.912 278.306C143.539 277.741 143.027 277.349 142.377 277.132C141.727 276.914 140.904 276.902 139.909 277.096L138.152 277.438L139.748 285.635ZM151.992 284.496C151.299 284.631 150.653 284.59 150.053 284.372C149.464 284.153 148.962 283.785 148.547 283.268C148.13 282.741 147.847 282.093 147.697 281.322C147.545 280.541 147.559 279.834 147.74 279.202C147.93 278.567 148.263 278.036 148.737 277.61C149.22 277.181 149.813 276.899 150.516 276.762C151.238 276.621 151.879 276.664 152.44 276.889C153.01 277.112 153.478 277.461 153.844 277.937C154.218 278.401 154.466 278.945 154.587 279.57C154.606 279.667 154.626 279.77 154.647 279.877C154.668 279.985 154.687 280.107 154.704 280.246L148.673 281.42L148.488 280.469L153.333 279.525C153.173 278.858 152.846 278.375 152.352 278.076C151.868 277.775 151.314 277.685 150.689 277.807C150.27 277.889 149.898 278.062 149.575 278.328C149.26 278.582 149.031 278.915 148.889 279.327C148.744 279.73 148.725 280.205 148.832 280.751L148.912 281.161C149.029 281.766 149.236 282.253 149.53 282.621C149.834 282.987 150.182 283.238 150.573 283.375C150.974 283.509 151.38 283.537 151.789 283.457C152.307 283.356 152.709 283.161 152.997 282.872C153.293 282.572 153.476 282.212 153.547 281.793L154.762 281.556C154.73 282.018 154.602 282.454 154.378 282.862C154.153 283.27 153.842 283.62 153.442 283.91C153.051 284.189 152.568 284.384 151.992 284.496ZM157.669 286.551L155.605 275.953L156.718 275.737L157.054 276.917C157.165 276.652 157.322 276.394 157.526 276.141C157.728 275.879 157.988 275.651 158.304 275.458C158.619 275.255 158.996 275.111 159.436 275.025C160.158 274.884 160.815 274.934 161.409 275.173C162.012 275.41 162.517 275.792 162.924 276.321C163.338 276.838 163.618 277.467 163.762 278.208C163.907 278.95 163.885 279.643 163.696 280.288C163.516 280.92 163.189 281.455 162.717 281.891C162.245 282.327 161.648 282.616 160.926 282.756C160.331 282.872 159.78 282.853 159.274 282.698C158.777 282.542 158.364 282.268 158.035 281.876L158.899 286.311L157.669 286.551ZM160.586 281.714C161.064 281.621 161.466 281.421 161.791 281.114C162.116 280.808 162.342 280.43 162.467 279.98C162.6 279.519 162.611 279.005 162.501 278.439C162.392 277.883 162.19 277.416 161.894 277.038C161.607 276.658 161.256 276.387 160.839 276.225C160.423 276.063 159.975 276.029 159.497 276.122C159.009 276.217 158.603 276.418 158.278 276.724C157.952 277.031 157.728 277.414 157.605 277.873C157.482 278.333 157.474 278.841 157.583 279.397C157.693 279.963 157.891 280.436 158.178 280.815C158.463 281.185 158.813 281.451 159.23 281.613C159.646 281.775 160.098 281.809 160.586 281.714ZM169.532 281.081C168.849 281.214 168.204 281.177 167.597 280.971C166.988 280.756 166.471 280.39 166.047 279.875C165.62 279.351 165.332 278.703 165.182 277.932C165.028 277.142 165.051 276.428 165.251 275.792C165.459 275.143 165.806 274.61 166.292 274.191C166.785 273.761 167.374 273.479 168.057 273.346C168.759 273.209 169.41 273.25 170.01 273.467C170.617 273.673 171.134 274.038 171.56 274.563C171.994 275.076 172.287 275.723 172.439 276.504C172.591 277.284 172.563 277.999 172.355 278.647C172.145 279.285 171.799 279.819 171.315 280.247C170.829 280.666 170.235 280.944 169.532 281.081ZM169.342 280.024C169.761 279.942 170.132 279.764 170.453 279.488C170.772 279.203 171.003 278.829 171.146 278.366C171.289 277.903 171.3 277.364 171.18 276.749C171.059 276.124 170.846 275.629 170.542 275.263C170.245 274.885 169.897 274.629 169.496 274.494C169.102 274.348 168.691 274.317 168.262 274.4C167.852 274.48 167.483 274.663 167.154 274.95C166.832 275.225 166.6 275.595 166.458 276.058C166.323 276.51 166.316 277.048 166.438 277.672C166.558 278.287 166.766 278.783 167.062 279.161C167.368 279.537 167.718 279.798 168.111 279.944C168.512 280.079 168.922 280.105 169.342 280.024ZM177.697 279.491C177.082 279.61 176.525 279.612 176.027 279.497C175.538 279.379 175.122 279.167 174.778 278.859C174.443 278.539 174.197 278.136 174.042 277.65L175.3 277.405C175.399 277.649 175.547 277.863 175.745 278.048C175.943 278.232 176.187 278.367 176.477 278.452C176.775 278.526 177.119 278.524 177.509 278.448C177.851 278.382 178.124 278.278 178.33 278.137C178.533 277.986 178.671 277.812 178.745 277.615C178.827 277.417 178.849 277.215 178.809 277.01C178.75 276.708 178.632 276.493 178.455 276.365C178.288 276.236 178.06 276.154 177.769 276.119C177.477 276.075 177.129 276.056 176.726 276.064C176.392 276.068 176.06 276.052 175.729 276.015C175.397 275.978 175.095 275.905 174.82 275.797C174.544 275.678 174.31 275.516 174.118 275.311C173.936 275.103 173.811 274.829 173.745 274.487C173.663 274.067 173.698 273.676 173.85 273.312C174 272.938 174.257 272.62 174.621 272.357C174.995 272.091 175.45 271.906 175.987 271.802C176.777 271.648 177.453 271.714 178.015 271.999C178.578 272.285 178.973 272.78 179.201 273.485L177.986 273.722C177.865 273.361 177.648 273.104 177.335 272.952C177.03 272.789 176.643 272.753 176.175 272.844C175.716 272.933 175.383 273.094 175.175 273.327C174.977 273.558 174.907 273.825 174.966 274.128C175.004 274.323 175.102 274.486 175.259 274.618C175.424 274.737 175.644 274.826 175.919 274.884C176.203 274.94 176.542 274.965 176.936 274.959C177.441 274.952 177.908 274.983 178.336 275.051C178.765 275.12 179.13 275.277 179.431 275.522C179.74 275.756 179.945 276.136 180.048 276.663C180.137 277.121 180.098 277.544 179.93 277.931C179.772 278.317 179.503 278.648 179.121 278.925C178.738 279.192 178.263 279.38 177.697 279.491ZM182.346 278.403L180.909 271.026L182.139 270.786L183.575 278.163L182.346 278.403ZM181.219 269.34C180.975 269.387 180.755 269.349 180.559 269.225C180.37 269.09 180.252 268.9 180.205 268.656C180.157 268.412 180.197 268.202 180.325 268.025C180.46 267.837 180.65 267.719 180.894 267.671C181.128 267.625 181.344 267.665 181.54 267.788C181.734 267.902 181.855 268.081 181.903 268.325C181.95 268.569 181.907 268.79 181.774 268.989C181.638 269.177 181.453 269.294 181.219 269.34ZM188.643 277.177C188.204 277.262 187.81 277.268 187.462 277.194C187.113 277.12 186.82 276.939 186.581 276.651C186.351 276.352 186.181 275.924 186.073 275.368L185.272 271.255L183.984 271.506L183.782 270.466L185.07 270.215L184.883 268.398L185.952 268.19L186.299 269.976L188.436 269.56L188.639 270.599L186.502 271.015L187.303 275.128C187.392 275.587 187.545 275.881 187.763 276.011C187.979 276.131 188.321 276.145 188.789 276.054L189.58 275.9L189.785 276.954L188.643 277.177Z" fill="#403C3C"/>
<path d="M144.213 308.372C143.788 308.455 143.406 308.446 143.069 308.346C142.731 308.245 142.449 308.061 142.223 307.794C142.003 307.519 141.852 307.172 141.771 306.753L142.513 306.609C142.569 306.858 142.656 307.08 142.773 307.275C142.896 307.46 143.064 307.598 143.277 307.687C143.489 307.775 143.759 307.788 144.087 307.724C144.408 307.662 144.643 307.554 144.795 307.402C144.951 307.241 145.048 307.052 145.086 306.835C145.129 306.61 145.126 306.371 145.077 306.121L144.018 300.684L144.75 300.541L145.809 305.978C145.932 306.612 145.851 307.142 145.565 307.566C145.284 307.983 144.834 308.251 144.213 308.372ZM149.442 307.354C149.017 307.437 148.647 307.429 148.331 307.332C148.022 307.233 147.775 307.075 147.588 306.858C147.408 306.64 147.289 306.384 147.232 306.091C147.162 305.729 147.193 305.405 147.325 305.118C147.464 304.831 147.689 304.592 147.999 304.401C148.309 304.211 148.687 304.072 149.133 303.985L150.555 303.708C150.489 303.366 150.38 303.087 150.23 302.871C150.079 302.654 149.891 302.506 149.666 302.427C149.439 302.341 149.173 302.328 148.866 302.388C148.51 302.457 148.221 302.607 147.999 302.839C147.776 303.07 147.667 303.366 147.672 303.727L146.909 303.875C146.879 303.498 146.944 303.163 147.104 302.872C147.272 302.579 147.5 302.339 147.789 302.152C148.077 301.959 148.395 301.828 148.744 301.76C149.232 301.665 149.647 301.682 149.991 301.81C150.333 301.932 150.611 302.138 150.827 302.429C151.043 302.72 151.192 303.074 151.273 303.492L151.906 306.744L151.237 306.874L151.008 305.92C150.974 306.079 150.914 306.235 150.828 306.39C150.749 306.542 150.646 306.682 150.519 306.808C150.398 306.933 150.25 307.041 150.072 307.134C149.896 307.233 149.686 307.306 149.442 307.354ZM149.402 306.7C149.66 306.65 149.879 306.553 150.061 306.409C150.249 306.256 150.399 306.079 150.511 305.876C150.623 305.673 150.697 305.457 150.732 305.226C150.765 304.988 150.758 304.75 150.712 304.513L150.676 304.325L149.306 304.592C148.936 304.664 148.649 304.767 148.444 304.901C148.238 305.035 148.102 305.188 148.034 305.36C147.966 305.533 147.952 305.72 147.991 305.922C148.031 306.124 148.111 306.293 148.231 306.429C148.35 306.557 148.509 306.649 148.708 306.705C148.913 306.752 149.144 306.75 149.402 306.7ZM153.289 306.475L152.263 301.205L152.932 301.075L153.157 302.008C153.259 301.641 153.449 301.332 153.726 301.083C154.01 300.832 154.347 300.669 154.737 300.593C155.141 300.514 155.509 300.526 155.84 300.628C156.171 300.73 156.452 300.928 156.683 301.223C156.913 301.511 157.076 301.906 157.174 302.408L157.795 305.597L157.063 305.74L156.459 302.634C156.35 302.077 156.147 301.686 155.85 301.461C155.553 301.237 155.179 301.169 154.725 301.257C154.419 301.317 154.155 301.448 153.934 301.65C153.718 301.844 153.565 302.098 153.475 302.412C153.391 302.725 153.39 303.091 153.471 303.509L154.021 306.332L153.289 306.475ZM164.52 304.418C164.074 304.505 163.67 304.493 163.309 304.382C162.954 304.271 162.654 304.087 162.409 303.831C162.162 303.567 161.979 303.259 161.86 302.906L162.54 302.774C162.698 303.177 162.939 303.467 163.262 303.643C163.591 303.81 163.969 303.852 164.394 303.77C164.791 303.692 165.12 303.505 165.381 303.208C165.641 302.912 165.815 302.502 165.901 301.979C165.993 301.447 165.98 300.809 165.864 300.065C165.859 300.037 165.854 300.013 165.85 299.992C165.845 299.964 165.84 299.939 165.836 299.918C165.776 300.169 165.661 300.415 165.492 300.658C165.329 300.9 165.113 301.112 164.845 301.294C164.582 301.468 164.27 301.591 163.907 301.661C163.489 301.743 163.076 301.722 162.669 301.599C162.268 301.474 161.919 301.256 161.619 300.946C161.32 300.635 161.125 300.246 161.034 299.779C160.955 299.375 160.978 298.969 161.101 298.562C161.23 298.146 161.456 297.784 161.779 297.475C162.108 297.157 162.534 296.948 163.056 296.846C163.579 296.744 164.037 296.756 164.431 296.882C164.824 297.008 165.162 297.217 165.443 297.51C165.724 297.802 165.954 298.148 166.133 298.547C166.311 298.94 166.442 299.352 166.526 299.784C166.682 300.586 166.708 301.315 166.605 301.972C166.501 302.628 166.274 303.172 165.924 303.602C165.58 304.03 165.113 304.302 164.52 304.418ZM163.917 300.987C164.259 300.92 164.55 300.78 164.79 300.567C165.038 300.352 165.213 300.098 165.314 299.803C165.423 299.507 165.446 299.199 165.384 298.878C165.317 298.536 165.179 298.252 164.968 298.026C164.763 297.791 164.507 297.627 164.2 297.535C163.898 297.435 163.577 297.418 163.235 297.484C162.886 297.552 162.591 297.689 162.349 297.895C162.107 298.102 161.935 298.352 161.834 298.647C161.731 298.935 161.712 299.249 161.779 299.591C161.847 299.939 161.983 300.231 162.188 300.466C162.4 300.7 162.656 300.863 162.956 300.957C163.255 301.043 163.576 301.053 163.917 300.987ZM168.164 304.913L168.349 302.576L169.133 302.423L168.687 304.811L168.164 304.913ZM173.25 302.588L173.152 302.086C173.582 301.582 173.983 301.081 174.356 300.581C174.729 300.082 175.051 299.596 175.321 299.124C175.597 298.651 175.799 298.202 175.927 297.78C176.053 297.35 176.08 296.95 176.008 296.581C175.957 296.316 175.859 296.075 175.715 295.857C175.578 295.637 175.391 295.475 175.154 295.369C174.916 295.264 174.613 295.247 174.243 295.319C173.895 295.387 173.62 295.52 173.42 295.718C173.22 295.916 173.089 296.151 173.026 296.424C172.962 296.69 172.958 296.969 173.015 297.262L172.304 297.4C172.214 296.933 172.233 296.513 172.363 296.141C172.492 295.761 172.706 295.448 173.005 295.202C173.31 294.947 173.685 294.776 174.131 294.689C174.543 294.609 174.927 294.614 175.284 294.704C175.642 294.793 175.949 294.979 176.207 295.262C176.465 295.544 176.642 295.933 176.738 296.428C176.806 296.777 176.798 297.144 176.714 297.529C176.635 297.906 176.507 298.285 176.328 298.668C176.149 299.05 175.94 299.427 175.702 299.799C175.463 300.171 175.213 300.523 174.953 300.856C174.699 301.188 174.457 301.488 174.227 301.757L177.918 301.038L178.038 301.655L173.25 302.588ZM182.04 301.006C181.399 301.131 180.821 301.081 180.307 300.855C179.791 300.623 179.356 300.248 179.003 299.731C178.647 299.207 178.396 298.569 178.25 297.816C178.103 297.063 178.097 296.381 178.231 295.768C178.364 295.149 178.626 294.639 179.018 294.237C179.409 293.828 179.921 293.562 180.555 293.438C181.19 293.315 181.764 293.369 182.28 293.602C182.794 293.827 183.225 294.203 183.574 294.728C183.927 295.245 184.178 295.88 184.324 296.633C184.471 297.386 184.478 298.071 184.345 298.691C184.218 299.301 183.959 299.811 183.569 300.22C183.177 300.622 182.667 300.884 182.04 301.006ZM181.905 300.37C182.344 300.285 182.71 300.083 183.003 299.766C183.302 299.447 183.504 299.035 183.609 298.53C183.712 298.018 183.699 297.435 183.572 296.779C183.444 296.124 183.237 295.582 182.951 295.153C182.665 294.724 182.323 294.418 181.926 294.235C181.535 294.051 181.121 294.001 180.681 294.087C180.249 294.171 179.883 294.372 179.584 294.691C179.284 295.01 179.079 295.422 178.968 295.929C178.863 296.434 178.875 297.014 179.003 297.669C179.13 298.324 179.338 298.87 179.625 299.306C179.918 299.734 180.263 300.039 180.661 300.222C181.058 300.405 181.473 300.454 181.905 300.37ZM186.145 300.076L186.047 299.574C186.478 299.071 186.879 298.57 187.252 298.07C187.625 297.571 187.946 297.085 188.216 296.613C188.493 296.139 188.695 295.691 188.823 295.268C188.949 294.839 188.976 294.439 188.904 294.07C188.852 293.805 188.755 293.564 188.611 293.346C188.474 293.126 188.287 292.964 188.049 292.858C187.812 292.752 187.508 292.736 187.139 292.807C186.79 292.875 186.516 293.008 186.316 293.206C186.116 293.405 185.984 293.64 185.922 293.913C185.857 294.178 185.854 294.458 185.911 294.75L185.2 294.889C185.109 294.422 185.129 294.002 185.259 293.629C185.387 293.25 185.601 292.937 185.901 292.69C186.205 292.436 186.581 292.265 187.027 292.178C187.438 292.098 187.823 292.103 188.18 292.192C188.538 292.282 188.845 292.468 189.103 292.751C189.36 293.033 189.537 293.422 189.634 293.917C189.702 294.265 189.693 294.632 189.609 295.018C189.531 295.395 189.402 295.774 189.223 296.156C189.044 296.538 188.836 296.915 188.597 297.287C188.358 297.659 188.109 298.012 187.848 298.345C187.594 298.676 187.353 298.977 187.123 299.246L190.814 298.527L190.934 299.144L186.145 300.076ZM194.88 298.506C194.364 298.606 193.91 298.593 193.516 298.467C193.121 298.334 192.784 298.125 192.504 297.84C192.223 297.547 191.993 297.205 191.816 296.813C191.637 296.413 191.505 295.998 191.421 295.566C191.264 294.757 191.233 294.025 191.33 293.37C191.433 292.713 191.661 292.173 192.013 291.75C192.363 291.32 192.831 291.048 193.417 290.934C193.863 290.847 194.263 290.859 194.618 290.971C194.979 291.082 195.282 291.265 195.528 291.521C195.78 291.776 195.963 292.084 196.077 292.445L195.397 292.577C195.246 292.173 195.006 291.887 194.676 291.719C194.353 291.544 193.975 291.498 193.543 291.582C193.152 291.658 192.824 291.845 192.556 292.143C192.295 292.44 192.119 292.854 192.027 293.386C191.943 293.916 191.96 294.56 192.078 295.318C192.082 295.339 192.086 295.36 192.09 295.381C192.093 295.395 192.097 295.412 192.101 295.433C192.166 295.174 192.281 294.928 192.445 294.693C192.615 294.45 192.831 294.242 193.094 294.068C193.362 293.885 193.674 293.759 194.029 293.69C194.447 293.609 194.86 293.63 195.268 293.753C195.675 293.876 196.025 294.094 196.317 294.406C196.615 294.71 196.81 295.098 196.903 295.572C196.981 295.977 196.96 296.386 196.838 296.8C196.715 297.208 196.489 297.57 196.16 297.887C195.836 298.196 195.41 298.402 194.88 298.506ZM194.712 297.865C195.054 297.799 195.345 297.663 195.587 297.456C195.829 297.25 196.001 296.999 196.103 296.705C196.205 296.41 196.223 296.095 196.158 295.761C196.089 295.405 195.952 295.114 195.749 294.886C195.544 294.651 195.292 294.49 194.993 294.403C194.693 294.31 194.372 294.296 194.03 294.363C193.688 294.429 193.394 294.57 193.146 294.785C192.904 294.991 192.73 295.246 192.622 295.549C192.514 295.845 192.49 296.153 192.553 296.474C192.618 296.808 192.753 297.093 192.958 297.328C193.17 297.562 193.427 297.729 193.728 297.829C194.036 297.921 194.364 297.933 194.712 297.865ZM203.373 296.852C202.948 296.934 202.577 296.927 202.262 296.829C201.953 296.73 201.705 296.572 201.518 296.356C201.338 296.137 201.22 295.882 201.163 295.589C201.092 295.227 201.123 294.902 201.256 294.616C201.395 294.329 201.62 294.089 201.93 293.899C202.24 293.708 202.618 293.57 203.064 293.483L204.486 293.206C204.42 292.864 204.311 292.585 204.16 292.368C204.01 292.152 203.822 292.004 203.596 291.925C203.37 291.839 203.103 291.826 202.797 291.885C202.441 291.955 202.152 292.105 201.929 292.336C201.707 292.568 201.598 292.864 201.603 293.225L200.84 293.373C200.81 292.996 200.875 292.661 201.035 292.369C201.202 292.076 201.431 291.837 201.72 291.65C202.008 291.457 202.326 291.326 202.674 291.258C203.162 291.163 203.578 291.18 203.921 291.308C204.263 291.43 204.542 291.636 204.758 291.927C204.974 292.217 205.122 292.572 205.204 292.99L205.837 296.242L205.168 296.372L204.939 295.418C204.904 295.577 204.844 295.733 204.759 295.887C204.68 296.04 204.577 296.18 204.45 296.306C204.329 296.43 204.18 296.539 204.003 296.631C203.827 296.731 203.617 296.804 203.373 296.852ZM203.332 296.198C203.59 296.147 203.81 296.05 203.992 295.906C204.179 295.754 204.329 295.577 204.442 295.374C204.554 295.171 204.628 294.954 204.662 294.723C204.695 294.485 204.689 294.248 204.643 294.011L204.606 293.823L203.237 294.089C202.867 294.161 202.58 294.264 202.374 294.398C202.169 294.532 202.032 294.686 201.965 294.858C201.897 295.03 201.883 295.217 201.922 295.42C201.961 295.622 202.041 295.791 202.162 295.926C202.281 296.055 202.44 296.147 202.639 296.202C202.843 296.249 203.075 296.248 203.332 296.198ZM209.053 295.615C208.754 295.674 208.487 295.679 208.253 295.63C208.018 295.575 207.82 295.45 207.66 295.257C207.505 295.056 207.39 294.764 207.315 294.38L206.706 291.254L205.786 291.433L205.664 290.806L206.584 290.627L206.451 289.383L207.078 289.261L207.318 290.495L208.897 290.187L209.017 290.804L207.438 291.112L208.047 294.238C208.115 294.586 208.231 294.81 208.395 294.908C208.557 294.999 208.816 295.01 209.172 294.941L209.715 294.835L209.837 295.463L209.053 295.615ZM216.378 294.319C215.904 294.411 215.462 294.407 215.051 294.306C214.646 294.197 214.306 294.006 214.028 293.735C213.758 293.462 213.583 293.12 213.503 292.709C213.445 292.409 213.449 292.115 213.516 291.827C213.59 291.538 213.72 291.277 213.906 291.046C214.091 290.807 214.323 290.624 214.603 290.498C214.159 290.447 213.799 290.292 213.525 290.035C213.25 289.777 213.079 289.474 213.011 289.126C212.942 288.77 212.97 288.428 213.094 288.1C213.218 287.772 213.434 287.488 213.742 287.247C214.049 287.006 214.437 286.84 214.904 286.75C215.384 286.656 215.809 286.664 216.178 286.773C216.553 286.88 216.86 287.063 217.098 287.321C217.337 287.578 217.49 287.884 217.559 288.24C217.627 288.588 217.579 288.934 217.414 289.277C217.257 289.619 216.985 289.896 216.6 290.109C216.913 290.12 217.196 290.202 217.451 290.356C217.703 290.502 217.915 290.696 218.085 290.937C218.262 291.178 218.38 291.448 218.438 291.748C218.518 292.159 218.481 292.542 218.326 292.898C218.177 293.252 217.933 293.557 217.592 293.811C217.256 294.058 216.852 294.227 216.378 294.319ZM216.249 293.661C216.828 293.548 217.234 293.331 217.468 293.011C217.701 292.683 217.774 292.296 217.687 291.85C217.588 291.342 217.358 290.992 216.995 290.802C216.632 290.613 216.19 290.568 215.667 290.67C215.144 290.772 214.751 290.979 214.486 291.291C214.221 291.603 214.138 292.013 214.237 292.522C214.324 292.968 214.537 293.299 214.876 293.516C215.213 293.725 215.671 293.773 216.249 293.661ZM215.541 290.022C216.008 289.931 216.354 289.741 216.58 289.451C216.811 289.153 216.889 288.808 216.813 288.418C216.727 287.979 216.524 287.678 216.203 287.517C215.888 287.346 215.497 287.307 215.03 287.398C214.563 287.489 214.215 287.672 213.987 287.948C213.757 288.217 213.685 288.571 213.77 289.01C213.846 289.401 214.044 289.691 214.363 289.882C214.688 290.065 215.081 290.112 215.541 290.022ZM220.499 293.441C220.345 293.471 220.206 293.443 220.081 293.359C219.963 293.274 219.889 293.154 219.86 293.001C219.83 292.848 219.854 292.713 219.933 292.596C220.017 292.471 220.136 292.394 220.289 292.364C220.442 292.334 220.578 292.362 220.696 292.447C220.819 292.525 220.897 292.643 220.928 292.804C220.957 292.95 220.929 293.086 220.844 293.211C220.767 293.334 220.652 293.411 220.499 293.441ZM219.648 289.07C219.494 289.1 219.355 289.073 219.23 288.989C219.112 288.903 219.038 288.784 219.008 288.631C218.979 288.477 219.003 288.342 219.082 288.226C219.166 288.101 219.284 288.023 219.438 287.994C219.591 287.964 219.727 287.991 219.845 288.077C219.968 288.154 220.046 288.273 220.077 288.433C220.105 288.58 220.078 288.715 219.993 288.84C219.916 288.964 219.801 289.041 219.648 289.07ZM224.762 292.686C224.274 292.781 223.832 292.777 223.436 292.673C223.038 292.563 222.701 292.375 222.425 292.111C222.155 291.838 221.951 291.516 221.814 291.144L222.536 291.004C222.709 291.411 222.981 291.713 223.352 291.908C223.723 292.104 224.156 292.153 224.651 292.057C225.027 291.984 225.331 291.834 225.562 291.608C225.792 291.383 225.949 291.11 226.032 290.79C226.113 290.463 226.118 290.122 226.049 289.766C225.976 289.39 225.838 289.07 225.634 288.805C225.438 288.54 225.192 288.353 224.895 288.244C224.606 288.134 224.288 288.113 223.939 288.18C223.507 288.265 223.159 288.426 222.894 288.666C222.637 288.904 222.46 289.188 222.365 289.518L221.665 289.654L221.504 285.594L225.31 284.853L225.434 285.491L222.203 286.12L222.245 288.619C222.377 288.369 222.58 288.148 222.854 287.958C223.133 287.759 223.472 287.62 223.869 287.543C224.218 287.475 224.55 287.475 224.868 287.544C225.185 287.612 225.47 287.741 225.724 287.93C225.984 288.111 226.203 288.347 226.383 288.638C226.561 288.921 226.686 289.248 226.758 289.617C226.825 289.959 226.833 290.297 226.782 290.633C226.739 290.967 226.632 291.273 226.462 291.552C226.299 291.83 226.074 292.069 225.788 292.27C225.508 292.469 225.166 292.608 224.762 292.686ZM231.468 291.381C230.827 291.505 230.249 291.455 229.735 291.23C229.219 290.997 228.784 290.623 228.431 290.106C228.075 289.581 227.824 288.943 227.678 288.19C227.531 287.438 227.525 286.755 227.659 286.143C227.792 285.524 228.054 285.013 228.446 284.612C228.836 284.203 229.349 283.936 229.983 283.813C230.618 283.689 231.192 283.744 231.708 283.976C232.222 284.202 232.653 284.577 233.002 285.103C233.355 285.62 233.606 286.255 233.752 287.007C233.899 287.76 233.906 288.446 233.773 289.065C233.646 289.676 233.387 290.186 232.997 290.595C232.605 290.996 232.095 291.258 231.468 291.381ZM231.333 290.745C231.772 290.659 232.138 290.458 232.431 290.14C232.73 289.822 232.932 289.41 233.037 288.905C233.139 288.393 233.127 287.809 233 287.154C232.872 286.499 232.665 285.957 232.379 285.528C232.093 285.099 231.751 284.793 231.354 284.61C230.963 284.425 230.549 284.376 230.109 284.461C229.677 284.545 229.311 284.747 229.012 285.066C228.712 285.384 228.507 285.797 228.395 286.303C228.291 286.808 228.303 287.388 228.431 288.044C228.558 288.699 228.766 289.244 229.053 289.68C229.346 290.108 229.691 290.413 230.089 290.596C230.486 290.78 230.901 290.829 231.333 290.745ZM238.199 289.94L239.471 282.096L240.224 281.949L244.346 288.742L243.573 288.893L240.034 282.984L238.962 289.791L238.199 289.94ZM239.047 287.723L239.149 287.074L242.38 286.445L242.717 287.009L239.047 287.723ZM245.51 288.516L244.085 281.197L244.921 281.034L248.636 285.791L250.306 279.986L251.152 279.821L252.578 287.139L251.846 287.282L250.681 281.302L249.116 286.75L248.572 286.856L245.081 282.414L246.242 288.373L245.51 288.516Z" fill="#A9A9A9"/>
<path d="M324.314 260.824L323.088 254.53L324.039 254.344L325.265 260.639L324.314 260.824ZM320.973 258.649L320.802 257.77L327.374 256.49L327.545 257.369L320.973 258.649ZM330.909 260.679L329.134 251.56L327.483 252.367L327.346 251.665L329.236 250.37L329.953 250.23L331.949 260.476L330.909 260.679ZM333.452 262.052L333.711 258.781L334.809 258.567L334.184 261.91L333.452 262.052ZM341.284 258.659L340.836 256.36L335.611 257.378L335.46 256.602L339.098 248.449L340.298 248.216L341.672 255.271L343.239 254.966L343.412 255.859L341.846 256.164L342.294 258.462L341.284 258.659ZM336.578 256.263L340.706 255.459L339.555 249.545L336.578 256.263ZM348.823 257.373C348.14 257.506 347.52 257.5 346.966 257.355C346.409 257.2 345.937 256.937 345.551 256.567C345.173 256.184 344.888 255.734 344.695 255.214L345.705 255.017C345.948 255.588 346.329 256.01 346.848 256.284C347.367 256.557 347.973 256.627 348.666 256.492C349.193 256.389 349.618 256.18 349.942 255.863C350.265 255.547 350.484 255.165 350.6 254.717C350.713 254.26 350.721 253.782 350.624 253.285C350.522 252.758 350.328 252.309 350.043 251.939C349.768 251.567 349.424 251.305 349.009 251.153C348.604 250.999 348.158 250.969 347.67 251.064C347.065 251.182 346.577 251.409 346.207 251.744C345.847 252.078 345.6 252.475 345.467 252.937L344.486 253.128L344.261 247.444L349.589 246.406L349.763 247.299L345.24 248.18L345.298 251.678C345.483 251.328 345.767 251.02 346.151 250.753C346.542 250.474 347.016 250.28 347.572 250.172C348.06 250.077 348.526 250.077 348.97 250.173C349.414 250.269 349.814 250.449 350.169 250.714C350.533 250.968 350.84 251.298 351.092 251.705C351.341 252.102 351.516 252.559 351.617 253.076C351.71 253.554 351.721 254.028 351.651 254.498C351.59 254.965 351.44 255.394 351.202 255.785C350.974 256.174 350.66 256.509 350.259 256.789C349.867 257.068 349.389 257.263 348.823 257.373ZM357.962 255.593C357.239 255.734 356.603 255.716 356.052 255.54C355.499 255.353 355.027 255.061 354.635 254.661C354.241 254.251 353.92 253.772 353.671 253.223C353.421 252.664 353.237 252.082 353.119 251.477C352.898 250.345 352.856 249.32 352.991 248.403C353.136 247.483 353.455 246.727 353.947 246.135C354.438 245.533 355.093 245.152 355.912 244.993C356.537 244.871 357.097 244.889 357.594 245.045C358.1 245.2 358.525 245.456 358.868 245.815C359.221 246.172 359.477 246.603 359.636 247.109L358.685 247.294C358.473 246.727 358.137 246.327 357.676 246.093C357.223 245.847 356.694 245.782 356.089 245.9C355.543 246.007 355.082 246.269 354.708 246.686C354.343 247.101 354.096 247.681 353.968 248.425C353.849 249.167 353.873 250.069 354.039 251.131C354.045 251.16 354.05 251.189 354.056 251.219C354.06 251.238 354.064 251.262 354.07 251.292C354.162 250.93 354.322 250.584 354.552 250.256C354.79 249.916 355.092 249.624 355.46 249.38C355.836 249.125 356.273 248.949 356.77 248.852C357.356 248.738 357.934 248.767 358.504 248.939C359.074 249.112 359.564 249.417 359.973 249.854C360.39 250.279 360.664 250.823 360.793 251.487C360.903 252.053 360.873 252.626 360.702 253.206C360.53 253.776 360.213 254.284 359.753 254.728C359.3 255.16 358.703 255.449 357.962 255.593ZM357.726 254.697C358.204 254.604 358.613 254.413 358.952 254.124C359.29 253.835 359.531 253.485 359.673 253.072C359.816 252.659 359.842 252.219 359.75 251.75C359.653 251.253 359.462 250.844 359.177 250.525C358.891 250.196 358.538 249.971 358.119 249.85C357.699 249.719 357.249 249.7 356.771 249.793C356.293 249.887 355.881 250.083 355.534 250.384C355.195 250.673 354.951 251.029 354.801 251.453C354.648 251.868 354.616 252.3 354.703 252.748C354.794 253.217 354.984 253.616 355.27 253.945C355.567 254.272 355.927 254.506 356.349 254.646C356.779 254.775 357.238 254.792 357.726 254.697ZM363.194 254.468C362.98 254.509 362.785 254.471 362.61 254.354C362.445 254.234 362.342 254.067 362.3 253.852C362.258 253.637 362.292 253.448 362.402 253.285C362.52 253.11 362.686 253.002 362.901 252.96C363.116 252.918 363.305 252.957 363.471 253.077C363.644 253.185 363.752 253.351 363.796 253.576C363.835 253.781 363.797 253.971 363.679 254.146C363.571 254.318 363.409 254.426 363.194 254.468ZM365.573 253.929L365.436 253.226C366.038 252.521 366.601 251.819 367.123 251.12C367.645 250.421 368.095 249.741 368.473 249.08C368.86 248.417 369.143 247.789 369.321 247.198C369.498 246.596 369.536 246.037 369.435 245.519C369.363 245.149 369.226 244.811 369.025 244.505C368.834 244.198 368.572 243.971 368.239 243.823C367.906 243.675 367.481 243.651 366.964 243.752C366.476 243.847 366.092 244.033 365.812 244.311C365.532 244.588 365.348 244.918 365.26 245.299C365.17 245.671 365.165 246.062 365.245 246.472L364.25 246.666C364.123 246.012 364.15 245.424 364.332 244.903C364.512 244.371 364.812 243.933 365.231 243.588C365.657 243.232 366.183 242.993 366.808 242.871C367.383 242.759 367.922 242.766 368.422 242.891C368.922 243.016 369.353 243.277 369.714 243.672C370.074 244.068 370.322 244.612 370.457 245.305C370.552 245.793 370.541 246.307 370.423 246.846C370.313 247.374 370.133 247.905 369.883 248.44C369.632 248.975 369.34 249.503 369.006 250.024C368.672 250.545 368.322 251.038 367.957 251.504C367.602 251.969 367.264 252.389 366.942 252.766L372.109 251.759L372.277 252.623L365.573 253.929ZM377.348 251.818C376.695 251.945 376.081 251.943 375.509 251.811C374.944 251.668 374.46 251.393 374.057 250.985C373.661 250.566 373.386 250.012 373.231 249.323L374.271 249.12C374.36 249.528 374.536 249.884 374.798 250.188C375.059 250.491 375.392 250.715 375.794 250.859C376.195 250.994 376.654 251.011 377.172 250.91C377.689 250.81 378.099 250.628 378.403 250.367C378.706 250.105 378.914 249.791 379.025 249.425C379.143 249.047 379.164 248.659 379.086 248.259C378.985 247.741 378.778 247.351 378.463 247.088C378.157 246.814 377.784 246.643 377.346 246.577C376.907 246.51 376.449 246.524 375.971 246.617L375.21 246.765L375.039 245.887L375.8 245.738C376.522 245.598 377.046 245.324 377.372 244.916C377.707 244.506 377.819 244.013 377.707 243.438C377.614 242.959 377.375 242.591 376.99 242.331C376.615 242.07 376.105 242.002 375.461 242.128C374.856 242.246 374.403 242.516 374.1 242.94C373.806 243.352 373.687 243.836 373.745 244.391L372.691 244.597C372.616 244.054 372.67 243.553 372.854 243.091C373.035 242.62 373.333 242.223 373.746 241.9C374.167 241.565 374.684 241.337 375.299 241.217C375.943 241.092 376.508 241.104 376.992 241.252C377.485 241.389 377.877 241.632 378.167 241.981C378.466 242.317 378.66 242.715 378.749 243.174C378.816 243.515 378.821 243.854 378.764 244.189C378.706 244.514 378.569 244.824 378.353 245.12C378.145 245.403 377.846 245.634 377.455 245.811C377.882 245.819 378.278 245.904 378.644 246.066C379.01 246.227 379.326 246.475 379.594 246.808C379.859 247.131 380.04 247.541 380.137 248.039C380.245 248.595 380.219 249.137 380.059 249.664C379.896 250.182 379.59 250.637 379.139 251.028C378.687 251.41 378.09 251.673 377.348 251.818Z" fill="#403C3C"/>
</g>
<g filter="url(#filter1_dn_2_27)">
<rect x="29.4031" y="144" width="349.377" height="90.24" rx="10.6517" transform="rotate(0.255952 29.4031 144)" fill="white" shape-rendering="crispEdges"/>
<rect x="50.5999" y="167.911" width="42.6069" height="42.6069" rx="8.52138" transform="rotate(0.255952 50.5999 167.911)" fill="#403C3C" fill-opacity="0.1"/>
<path d="M71.8459 180.789L65.4264 187.151M71.8459 180.789L78.2084 187.208M71.8459 180.789L71.796 191.973M71.7698 197.831L71.7817 195.168" stroke="#403C3C" stroke-width="1.59776" stroke-linecap="round" stroke-linejoin="round"/>
<path d="M113.446 183.496L110.63 173.044L111.972 173.05L114.184 182.008L116.774 173.072L118.175 173.078L120.626 182.066L122.947 173.099L124.289 173.105L121.32 183.531L119.888 183.525L117.437 174.879L114.848 183.502L113.446 183.496ZM125.775 183.551L125.809 176.035L127.062 176.041L127.028 183.557L125.775 183.551ZM126.442 174.442C126.194 174.441 125.985 174.361 125.817 174.201C125.659 174.031 125.58 173.822 125.581 173.574C125.583 173.325 125.663 173.127 125.823 172.978C125.992 172.82 126.202 172.741 126.45 172.742C126.689 172.743 126.892 172.824 127.06 172.984C127.229 173.134 127.312 173.333 127.311 173.581C127.31 173.83 127.225 174.038 127.055 174.206C126.885 174.365 126.681 174.443 126.442 174.442ZM132.191 183.58C131.744 183.578 131.356 183.506 131.029 183.366C130.702 183.225 130.449 182.99 130.272 182.661C130.104 182.323 130.022 181.87 130.024 181.303L130.043 177.113L128.731 177.107L128.735 176.048L130.048 176.054L130.22 174.236L131.308 174.24L131.3 176.06L133.477 176.069L133.473 177.128L131.295 177.118L131.277 181.309C131.275 181.776 131.368 182.095 131.556 182.264C131.744 182.424 132.077 182.505 132.554 182.507L133.359 182.511L133.354 183.585L132.191 183.58ZM135.078 183.592L135.126 172.856L136.379 172.861L136.359 177.35C136.609 176.904 136.959 176.552 137.407 176.296C137.866 176.039 138.363 175.912 138.9 175.915C139.477 175.917 139.978 176.039 140.405 176.279C140.831 176.51 141.158 176.864 141.384 177.342C141.611 177.821 141.723 178.423 141.719 179.148L141.699 183.622L140.462 183.617L140.481 179.277C140.484 178.521 140.328 177.954 140.011 177.575C139.695 177.186 139.234 176.99 138.627 176.987C138.2 176.985 137.811 177.088 137.463 177.295C137.124 177.502 136.854 177.799 136.653 178.186C136.453 178.573 136.351 179.05 136.349 179.616L136.331 183.598L135.078 183.592ZM146.965 183.825C146.24 183.821 145.604 183.649 145.059 183.309C144.514 182.959 144.093 182.484 143.798 181.887C143.502 181.289 143.356 180.612 143.359 179.857C143.363 179.101 143.515 178.431 143.816 177.845C144.117 177.25 144.541 176.785 145.09 176.449C145.648 176.114 146.29 175.948 147.016 175.951C147.632 175.954 148.168 176.08 148.624 176.331C149.091 176.582 149.447 176.931 149.693 177.38L149.713 172.921L150.966 172.926L150.918 183.663L149.785 183.658L149.686 182.42C149.526 182.668 149.321 182.901 149.071 183.118C148.822 183.326 148.523 183.498 148.174 183.636C147.826 183.764 147.423 183.827 146.965 183.825ZM147.119 182.737C147.616 182.739 148.054 182.621 148.433 182.385C148.812 182.148 149.107 181.821 149.318 181.404C149.528 180.978 149.635 180.476 149.637 179.9C149.64 179.333 149.538 178.835 149.331 178.407C149.124 177.979 148.832 177.644 148.456 177.404C148.079 177.164 147.642 177.042 147.145 177.04C146.658 177.038 146.225 177.155 145.846 177.392C145.467 177.629 145.172 177.961 144.962 178.387C144.751 178.814 144.644 179.311 144.642 179.877C144.639 180.454 144.741 180.956 144.948 181.385C145.155 181.803 145.447 182.133 145.824 182.373C146.2 182.613 146.632 182.734 147.119 182.737ZM153.005 183.673L153.039 176.157L154.172 176.162L154.255 177.594C154.426 177.257 154.641 176.969 154.9 176.732C155.17 176.494 155.489 176.312 155.857 176.184C156.235 176.057 156.663 175.994 157.14 175.996L157.134 177.308L156.672 177.306C156.354 177.305 156.051 177.348 155.762 177.437C155.473 177.515 155.214 177.648 154.985 177.836C154.765 178.024 154.59 178.281 154.459 178.609C154.339 178.926 154.277 179.324 154.275 179.801L154.258 183.678L153.005 183.673ZM160.969 183.887C160.363 183.884 159.856 183.778 159.449 183.567C159.043 183.347 158.741 183.062 158.544 182.713C158.346 182.354 158.249 181.966 158.251 181.549C158.253 181.042 158.384 180.615 158.644 180.268C158.914 179.911 159.288 179.644 159.766 179.468C160.254 179.281 160.826 179.189 161.482 179.192L163.466 179.201C163.468 178.734 163.395 178.345 163.247 178.037C163.109 177.718 162.902 177.478 162.624 177.318C162.356 177.158 162.019 177.077 161.611 177.075C161.134 177.073 160.721 177.19 160.372 177.427C160.023 177.664 159.807 178.016 159.726 178.483L158.443 178.477C158.505 177.941 158.686 177.494 158.986 177.138C159.296 176.771 159.685 176.495 160.153 176.308C160.621 176.111 161.109 176.014 161.616 176.016C162.312 176.019 162.888 176.151 163.344 176.412C163.81 176.662 164.156 177.017 164.383 177.475C164.61 177.923 164.722 178.456 164.719 179.072L164.698 183.725L163.58 183.72L163.511 182.392C163.411 182.601 163.28 182.799 163.121 182.987C162.971 183.165 162.791 183.324 162.582 183.462C162.372 183.59 162.133 183.693 161.864 183.772C161.606 183.85 161.307 183.889 160.969 183.887ZM161.168 182.829C161.516 182.831 161.829 182.763 162.108 182.625C162.397 182.477 162.642 182.279 162.841 182.031C163.041 181.774 163.192 181.491 163.293 181.183C163.403 180.876 163.459 180.553 163.461 180.215L163.461 180.17L161.582 180.162C161.095 180.16 160.702 180.217 160.403 180.335C160.105 180.443 159.89 180.602 159.76 180.81C159.63 181.008 159.564 181.236 159.563 181.495C159.562 181.763 159.621 181.997 159.739 182.196C159.867 182.396 160.05 182.551 160.289 182.661C160.537 182.772 160.83 182.828 161.168 182.829ZM168.011 183.74L165.838 176.214L167.09 176.22L168.777 182.565L168.553 182.564L170.446 176.235L171.862 176.241L173.728 182.572L173.489 182.586L175.218 176.256L176.485 176.262L174.259 183.768L172.977 183.762L171.038 177.132L171.292 177.133L169.294 183.745L168.011 183.74ZM180.046 183.972C179.44 183.97 178.933 183.863 178.527 183.652C178.12 183.432 177.818 183.147 177.621 182.798C177.424 182.44 177.326 182.051 177.328 181.634C177.33 181.127 177.461 180.7 177.721 180.353C177.991 179.996 178.365 179.73 178.843 179.553C179.331 179.366 179.903 179.274 180.559 179.277L182.543 179.286C182.545 178.819 182.472 178.431 182.324 178.122C182.186 177.803 181.979 177.564 181.701 177.403C181.433 177.243 181.096 177.162 180.688 177.16C180.211 177.158 179.798 177.275 179.449 177.512C179.1 177.75 178.885 178.102 178.803 178.568L177.52 178.563C177.582 178.026 177.763 177.58 178.063 177.223C178.373 176.857 178.762 176.58 179.23 176.393C179.698 176.196 180.186 176.099 180.693 176.101C181.389 176.104 181.965 176.236 182.421 176.497C182.887 176.747 183.234 177.102 183.46 177.56C183.687 178.009 183.799 178.541 183.796 179.157L183.775 183.81L182.657 183.805L182.588 182.477C182.488 182.686 182.358 182.884 182.198 183.072C182.048 183.251 181.868 183.409 181.659 183.547C181.449 183.675 181.21 183.779 180.942 183.857C180.683 183.935 180.384 183.974 180.046 183.972ZM180.245 182.914C180.593 182.916 180.906 182.848 181.185 182.71C181.474 182.562 181.719 182.364 181.919 182.117C182.119 181.859 182.269 181.576 182.37 181.269C182.481 180.961 182.537 180.638 182.538 180.3L182.538 180.255L180.659 180.247C180.172 180.245 179.779 180.303 179.481 180.421C179.182 180.529 178.967 180.687 178.837 180.895C178.707 181.093 178.641 181.322 178.64 181.58C178.639 181.848 178.698 182.082 178.816 182.282C178.944 182.481 179.128 182.636 179.366 182.746C179.614 182.857 179.907 182.913 180.245 182.914ZM185.713 183.819L185.761 173.082L187.014 173.087L186.966 183.824L185.713 183.819Z" fill="#403C3C"/>
<path d="M110.913 205.485L110.946 198.029L111.799 198.032L114.512 203.424L117.284 198.057L118.147 198.061L118.114 205.517L117.368 205.514L117.395 199.421L114.795 204.458L114.241 204.456L111.686 199.417L111.659 205.488L110.913 205.485ZM121.415 205.659C120.982 205.658 120.62 205.578 120.33 205.42C120.047 205.263 119.835 205.059 119.694 204.81C119.56 204.561 119.494 204.287 119.495 203.989C119.497 203.62 119.59 203.308 119.776 203.053C119.969 202.798 120.236 202.608 120.577 202.481C120.919 202.355 121.317 202.293 121.771 202.295L123.22 202.302C123.222 201.954 123.17 201.659 123.064 201.417C122.959 201.175 122.803 200.993 122.598 200.871C122.393 200.743 122.134 200.678 121.821 200.676C121.459 200.675 121.146 200.766 120.883 200.949C120.619 201.132 120.454 201.402 120.389 201.756L119.611 201.753C119.656 201.377 119.785 201.061 119.999 200.807C120.22 200.552 120.491 200.361 120.811 200.235C121.131 200.102 121.469 200.036 121.824 200.037C122.321 200.039 122.725 200.137 123.037 200.33C123.349 200.516 123.582 200.773 123.737 201.1C123.891 201.428 123.968 201.804 123.966 202.23L123.951 205.543L123.269 205.54L123.231 204.56C123.167 204.709 123.077 204.85 122.963 204.985C122.856 205.119 122.728 205.236 122.578 205.334C122.435 205.433 122.268 205.511 122.076 205.567C121.884 205.63 121.664 205.661 121.415 205.659ZM121.504 205.01C121.766 205.011 122.001 204.959 122.207 204.853C122.421 204.741 122.603 204.596 122.752 204.419C122.902 204.242 123.017 204.044 123.096 203.824C123.175 203.597 123.215 203.363 123.216 203.122L123.217 202.93L121.822 202.924C121.445 202.922 121.143 202.967 120.916 203.058C120.688 203.149 120.524 203.273 120.424 203.429C120.324 203.585 120.274 203.765 120.273 203.971C120.272 204.177 120.317 204.359 120.409 204.515C120.5 204.665 120.638 204.786 120.822 204.879C121.014 204.965 121.241 205.009 121.504 205.01ZM125.36 205.549L125.384 200.181L126.065 200.184L126.114 201.217C126.229 200.969 126.382 200.761 126.575 200.591C126.767 200.421 126.999 200.291 127.269 200.2C127.539 200.109 127.845 200.064 128.186 200.066L128.182 200.843L127.895 200.842C127.667 200.841 127.447 200.872 127.234 200.935C127.021 200.991 126.832 201.089 126.668 201.23C126.504 201.372 126.372 201.563 126.271 201.804C126.171 202.045 126.12 202.346 126.118 202.709L126.105 205.553L125.36 205.549ZM134.623 205.718C134.169 205.716 133.775 205.626 133.442 205.447C133.116 205.268 132.858 205.029 132.668 204.73C132.477 204.424 132.358 204.086 132.31 203.716L133.002 203.719C133.079 204.146 133.258 204.477 133.541 204.712C133.831 204.941 134.193 205.056 134.626 205.058C135.031 205.06 135.39 204.941 135.704 204.701C136.017 204.461 136.267 204.093 136.454 203.596C136.648 203.093 136.761 202.465 136.793 201.712C136.793 201.684 136.793 201.659 136.793 201.638C136.793 201.609 136.793 201.585 136.793 201.563C136.686 201.797 136.525 202.017 136.311 202.222C136.104 202.427 135.851 202.592 135.553 202.719C135.261 202.838 134.93 202.897 134.561 202.895C134.135 202.894 133.734 202.792 133.359 202.592C132.991 202.391 132.69 202.11 132.457 201.746C132.225 201.383 132.109 200.964 132.111 200.488C132.113 200.076 132.214 199.682 132.415 199.307C132.623 198.924 132.915 198.613 133.292 198.373C133.677 198.127 134.136 198.004 134.668 198.007C135.201 198.009 135.648 198.111 136.009 198.311C136.37 198.511 136.66 198.783 136.879 199.124C137.097 199.466 137.255 199.85 137.353 200.277C137.451 200.696 137.498 201.126 137.496 201.566C137.493 202.383 137.376 203.103 137.146 203.727C136.916 204.351 136.587 204.84 136.159 205.193C135.739 205.546 135.227 205.721 134.623 205.718ZM134.703 202.236C135.051 202.237 135.363 202.157 135.641 201.995C135.926 201.833 136.147 201.617 136.304 201.348C136.469 201.079 136.552 200.781 136.553 200.454C136.555 200.106 136.475 199.801 136.312 199.537C136.157 199.267 135.938 199.056 135.655 198.906C135.379 198.748 135.066 198.669 134.719 198.667C134.363 198.666 134.047 198.743 133.769 198.897C133.492 199.052 133.274 199.265 133.117 199.534C132.959 199.796 132.88 200.101 132.878 200.449C132.877 200.804 132.954 201.117 133.109 201.387C133.271 201.658 133.49 201.868 133.766 202.018C134.043 202.162 134.355 202.234 134.703 202.236ZM138.1 206.916L138.738 204.661L139.537 204.665L138.632 206.919L138.1 206.916ZM143.542 205.631L143.544 205.119C144.064 204.71 144.556 204.296 145.02 203.88C145.483 203.463 145.893 203.049 146.25 202.639C146.614 202.229 146.9 201.829 147.108 201.439C147.315 201.042 147.42 200.656 147.422 200.279C147.423 200.009 147.374 199.754 147.276 199.512C147.185 199.27 147.033 199.074 146.821 198.924C146.608 198.774 146.314 198.698 145.938 198.696C145.583 198.695 145.288 198.771 145.052 198.927C144.817 199.082 144.643 199.287 144.528 199.542C144.413 199.79 144.355 200.063 144.354 200.361L143.629 200.358C143.632 199.882 143.733 199.475 143.933 199.135C144.133 198.788 144.405 198.522 144.746 198.339C145.095 198.149 145.497 198.055 145.951 198.057C146.37 198.059 146.746 198.139 147.079 198.297C147.412 198.454 147.677 198.697 147.875 199.024C148.072 199.352 148.17 199.768 148.167 200.272C148.166 200.627 148.086 200.985 147.928 201.347C147.778 201.701 147.577 202.048 147.327 202.388C147.077 202.728 146.799 203.057 146.492 203.375C146.185 203.693 145.871 203.99 145.551 204.265C145.237 204.541 144.941 204.788 144.663 205.007L148.423 205.024L148.42 205.652L143.542 205.631ZM152.472 205.798C151.818 205.795 151.262 205.633 150.802 205.311C150.341 204.983 149.988 204.53 149.742 203.954C149.497 203.371 149.375 202.695 149.379 201.928C149.382 201.162 149.509 200.491 149.76 199.917C150.012 199.336 150.369 198.886 150.832 198.569C151.295 198.244 151.849 198.084 152.496 198.086C153.142 198.089 153.695 198.255 154.155 198.584C154.615 198.905 154.965 199.358 155.203 199.941C155.449 200.518 155.571 201.189 155.567 201.956C155.564 202.723 155.437 203.397 155.185 203.978C154.941 204.552 154.588 205.002 154.125 205.326C153.662 205.644 153.111 205.801 152.472 205.798ZM152.464 205.148C152.911 205.15 153.31 205.024 153.659 204.77C154.015 204.516 154.293 204.152 154.494 203.677C154.695 203.195 154.797 202.62 154.8 201.953C154.803 201.285 154.706 200.713 154.51 200.236C154.313 199.76 154.038 199.393 153.684 199.136C153.337 198.878 152.94 198.749 152.493 198.747C152.052 198.745 151.654 198.871 151.298 199.125C150.942 199.379 150.66 199.743 150.452 200.218C150.251 200.693 150.149 201.264 150.146 201.932C150.143 202.599 150.239 203.175 150.436 203.659C150.64 204.135 150.919 204.502 151.273 204.76C151.627 205.017 152.024 205.146 152.464 205.148ZM156.68 205.689L156.682 205.178C157.202 204.768 157.694 204.355 158.157 203.938C158.621 203.521 159.031 203.108 159.388 202.697C159.752 202.287 160.038 201.887 160.245 201.498C160.453 201.101 160.558 200.714 160.559 200.338C160.561 200.068 160.512 199.812 160.414 199.57C160.323 199.329 160.171 199.133 159.958 198.983C159.746 198.832 159.452 198.757 159.075 198.755C158.72 198.753 158.425 198.83 158.19 198.985C157.955 199.14 157.78 199.346 157.665 199.601C157.551 199.849 157.493 200.122 157.491 200.42L156.767 200.417C156.769 199.941 156.87 199.533 157.071 199.193C157.271 198.846 157.542 198.581 157.884 198.398C158.233 198.208 158.634 198.114 159.089 198.116C159.508 198.118 159.884 198.198 160.217 198.355C160.55 198.513 160.815 198.756 161.012 199.083C161.21 199.411 161.307 199.827 161.305 200.331C161.304 200.686 161.224 201.044 161.066 201.405C160.915 201.76 160.715 202.107 160.465 202.447C160.215 202.786 159.936 203.115 159.63 203.434C159.323 203.752 159.009 204.049 158.688 204.324C158.375 204.6 158.079 204.847 157.801 205.066L161.561 205.083L161.558 205.711L156.68 205.689ZM165.553 205.857C165.028 205.854 164.584 205.753 164.223 205.552C163.862 205.345 163.572 205.074 163.353 204.739C163.135 204.397 162.977 204.017 162.879 203.597C162.782 203.171 162.734 202.737 162.736 202.297C162.739 201.473 162.853 200.749 163.076 200.126C163.306 199.502 163.634 199.017 164.062 198.671C164.49 198.318 165.002 198.142 165.598 198.145C166.053 198.147 166.443 198.237 166.769 198.416C167.102 198.595 167.363 198.835 167.554 199.134C167.751 199.433 167.871 199.771 167.911 200.147L167.219 200.144C167.15 199.718 166.97 199.39 166.68 199.162C166.397 198.926 166.036 198.807 165.595 198.805C165.198 198.804 164.839 198.923 164.518 199.163C164.204 199.403 163.951 199.774 163.757 200.278C163.57 200.781 163.46 201.416 163.429 202.183C163.428 202.204 163.428 202.226 163.428 202.247C163.428 202.261 163.428 202.279 163.428 202.3C163.543 202.059 163.704 201.84 163.91 201.642C164.124 201.437 164.377 201.275 164.669 201.155C164.968 201.029 165.298 200.966 165.66 200.968C166.086 200.97 166.487 201.071 166.863 201.272C167.238 201.472 167.539 201.754 167.764 202.117C167.997 202.473 168.112 202.893 168.11 203.376C168.108 203.787 168.007 204.185 167.806 204.567C167.606 204.943 167.313 205.254 166.929 205.501C166.551 205.74 166.093 205.859 165.553 205.857ZM165.514 205.196C165.861 205.198 166.174 205.121 166.452 204.966C166.73 204.811 166.947 204.599 167.105 204.33C167.262 204.061 167.341 203.756 167.343 203.415C167.345 203.053 167.268 202.74 167.113 202.476C166.958 202.206 166.742 201.999 166.466 201.856C166.19 201.705 165.877 201.629 165.529 201.628C165.182 201.626 164.865 201.706 164.58 201.869C164.303 202.024 164.082 202.239 163.917 202.515C163.753 202.784 163.67 203.082 163.668 203.409C163.667 203.75 163.743 204.056 163.898 204.326C164.06 204.597 164.28 204.811 164.556 204.968C164.839 205.118 165.158 205.194 165.514 205.196ZM174.205 205.895C173.772 205.893 173.41 205.814 173.12 205.656C172.837 205.499 172.625 205.295 172.484 205.046C172.35 204.797 172.284 204.523 172.285 204.225C172.287 203.856 172.38 203.544 172.566 203.289C172.759 203.034 173.026 202.844 173.368 202.717C173.709 202.591 174.107 202.529 174.561 202.531L176.01 202.537C176.012 202.189 175.96 201.895 175.854 201.653C175.749 201.411 175.593 201.229 175.388 201.107C175.183 200.979 174.924 200.913 174.611 200.912C174.249 200.91 173.936 201.001 173.673 201.185C173.409 201.368 173.245 201.637 173.179 201.992L172.401 201.989C172.446 201.613 172.575 201.297 172.789 201.042C173.01 200.788 173.281 200.597 173.601 200.471C173.921 200.337 174.259 200.271 174.614 200.273C175.111 200.275 175.515 200.373 175.827 200.566C176.139 200.752 176.372 201.009 176.527 201.336C176.681 201.663 176.758 202.04 176.756 202.466L176.741 205.779L176.059 205.776L176.021 204.796C175.957 204.944 175.867 205.086 175.753 205.221C175.646 205.355 175.518 205.472 175.368 205.57C175.225 205.669 175.058 205.746 174.866 205.802C174.674 205.865 174.454 205.896 174.205 205.895ZM174.294 205.246C174.556 205.247 174.791 205.195 174.997 205.089C175.211 204.977 175.393 204.832 175.542 204.655C175.692 204.478 175.807 204.28 175.886 204.06C175.965 203.833 176.005 203.599 176.006 203.358L176.007 203.166L174.612 203.16C174.235 203.158 173.933 203.203 173.706 203.294C173.478 203.385 173.314 203.509 173.214 203.665C173.114 203.82 173.064 204.001 173.063 204.207C173.062 204.413 173.107 204.594 173.199 204.751C173.29 204.901 173.428 205.022 173.612 205.115C173.804 205.201 174.031 205.245 174.294 205.246ZM180.018 205.793C179.712 205.792 179.45 205.745 179.23 205.651C179.011 205.551 178.841 205.391 178.721 205.17C178.608 204.942 178.553 204.633 178.555 204.242L178.569 201.058L177.632 201.053L177.635 200.414L178.572 200.418L178.684 199.173L179.323 199.176L179.317 200.432L180.926 200.44L180.923 201.068L179.315 201.061L179.3 204.246C179.299 204.601 179.369 204.843 179.51 204.971C179.652 205.092 179.904 205.154 180.266 205.155L180.82 205.158L180.817 205.797L180.018 205.793ZM187.454 205.954C186.971 205.952 186.539 205.862 186.156 205.682C185.78 205.496 185.483 205.243 185.265 204.922C185.053 204.602 184.948 204.232 184.95 203.813C184.951 203.508 185.013 203.22 185.135 202.951C185.264 202.682 185.442 202.452 185.671 202.261C185.899 202.063 186.162 201.929 186.461 201.86C186.035 201.723 185.713 201.501 185.494 201.195C185.275 200.889 185.167 200.558 185.168 200.203C185.17 199.841 185.264 199.511 185.45 199.214C185.636 198.916 185.903 198.679 186.252 198.503C186.601 198.328 187.013 198.241 187.489 198.243C187.979 198.245 188.394 198.336 188.734 198.515C189.081 198.694 189.346 198.933 189.529 199.232C189.713 199.531 189.804 199.861 189.802 200.224C189.8 200.579 189.685 200.908 189.457 201.213C189.235 201.517 188.915 201.736 188.495 201.869C188.8 201.941 189.062 202.077 189.281 202.277C189.501 202.47 189.67 202.701 189.79 202.972C189.916 203.242 189.979 203.53 189.978 203.835C189.976 204.254 189.864 204.623 189.642 204.942C189.428 205.26 189.129 205.511 188.744 205.694C188.367 205.87 187.937 205.957 187.454 205.954ZM187.457 205.283C188.047 205.286 188.488 205.153 188.78 204.885C189.072 204.609 189.219 204.244 189.221 203.789C189.224 203.271 189.066 202.883 188.747 202.626C188.429 202.369 188.003 202.239 187.471 202.237C186.938 202.235 186.512 202.361 186.191 202.615C185.87 202.869 185.709 203.255 185.706 203.774C185.704 204.228 185.848 204.595 186.138 204.873C186.428 205.144 186.868 205.281 187.457 205.283ZM187.474 201.577C187.95 201.579 188.326 201.46 188.604 201.22C188.89 200.972 189.033 200.65 189.035 200.252C189.037 199.805 188.896 199.47 188.613 199.249C188.337 199.021 187.962 198.905 187.486 198.903C187.01 198.901 186.633 199.013 186.355 199.239C186.077 199.458 185.937 199.791 185.935 200.238C185.933 200.636 186.071 200.96 186.346 201.209C186.629 201.452 187.005 201.575 187.474 201.577ZM191.667 205.899C191.511 205.898 191.38 205.844 191.274 205.737C191.175 205.63 191.126 205.499 191.127 205.342C191.127 205.186 191.178 205.059 191.278 204.96C191.385 204.854 191.516 204.801 191.672 204.802C191.829 204.802 191.956 204.856 192.055 204.963C192.161 205.063 192.214 205.195 192.213 205.358C192.212 205.507 192.159 205.635 192.052 205.741C191.952 205.847 191.824 205.899 191.667 205.899ZM191.687 201.446C191.531 201.446 191.4 201.392 191.294 201.285C191.195 201.178 191.146 201.046 191.147 200.89C191.147 200.734 191.198 200.606 191.297 200.507C191.404 200.401 191.536 200.349 191.692 200.349C191.848 200.35 191.976 200.404 192.075 200.511C192.181 200.611 192.234 200.742 192.233 200.906C192.232 201.055 192.179 201.182 192.072 201.288C191.972 201.394 191.844 201.447 191.687 201.446ZM195.996 205.993C195.499 205.99 195.066 205.9 194.698 205.721C194.33 205.534 194.036 205.284 193.817 204.971C193.606 204.65 193.469 204.295 193.407 203.904L194.142 203.907C194.232 204.341 194.44 204.69 194.765 204.954C195.091 205.218 195.506 205.351 196.01 205.354C196.393 205.355 196.72 205.268 196.991 205.092C197.262 204.915 197.469 204.678 197.612 204.381C197.755 204.076 197.828 203.743 197.829 203.38C197.831 202.997 197.758 202.656 197.61 202.357C197.47 202.058 197.265 201.826 196.996 201.662C196.734 201.497 196.425 201.414 196.07 201.413C195.63 201.411 195.257 201.501 194.95 201.685C194.651 201.868 194.423 202.112 194.265 202.417L193.552 202.413L194.187 198.4L198.065 198.418L198.062 199.068L194.77 199.053L194.323 201.511C194.501 201.292 194.743 201.116 195.049 200.982C195.362 200.841 195.721 200.772 196.126 200.774C196.481 200.775 196.808 200.841 197.105 200.97C197.403 201.099 197.658 201.281 197.87 201.517C198.089 201.745 198.258 202.019 198.377 202.339C198.497 202.652 198.555 202.997 198.554 203.373C198.552 203.721 198.494 204.055 198.379 204.374C198.271 204.693 198.106 204.972 197.885 205.213C197.671 205.453 197.404 205.644 197.084 205.784C196.771 205.925 196.408 205.994 195.996 205.993ZM202.828 206.023C202.174 206.02 201.618 205.858 201.158 205.536C200.697 205.208 200.344 204.755 200.098 204.179C199.852 203.595 199.731 202.92 199.735 202.153C199.738 201.386 199.865 200.716 200.116 200.142C200.368 199.561 200.725 199.111 201.188 198.794C201.651 198.469 202.205 198.308 202.852 198.311C203.498 198.314 204.051 198.48 204.511 198.809C204.971 199.13 205.321 199.583 205.559 200.166C205.805 200.743 205.927 201.414 205.923 202.181C205.92 202.948 205.793 203.622 205.541 204.203C205.297 204.777 204.944 205.227 204.481 205.551C204.018 205.869 203.467 206.026 202.828 206.023ZM202.82 205.373C203.267 205.375 203.666 205.249 204.015 204.995C204.371 204.741 204.649 204.377 204.85 203.902C205.051 203.42 205.153 202.845 205.156 202.178C205.159 201.51 205.062 200.938 204.866 200.461C204.669 199.985 204.394 199.618 204.04 199.361C203.693 199.103 203.296 198.974 202.849 198.972C202.408 198.97 202.01 199.096 201.654 199.35C201.298 199.604 201.016 199.968 200.807 200.443C200.607 200.918 200.505 201.489 200.502 202.157C200.499 202.824 200.595 203.4 200.792 203.884C200.996 204.36 201.275 204.727 201.629 204.985C201.983 205.242 202.38 205.371 202.82 205.373ZM209.71 205.926L212.492 198.482L213.259 198.486L215.973 205.954L215.185 205.951L212.871 199.464L210.488 205.93L209.71 205.926ZM210.976 203.919L211.203 203.302L214.494 203.316L214.715 203.935L210.976 203.919ZM217.159 205.959L217.192 198.503L218.044 198.507L220.758 203.898L223.53 198.532L224.393 198.535L224.359 205.992L223.614 205.988L223.641 199.895L221.041 204.933L220.487 204.93L217.932 199.891L217.905 205.963L217.159 205.959Z" fill="#A9A9A9"/>
<path d="M296.013 191.375L296.017 190.48L301.818 190.506L301.814 191.401L296.013 191.375ZM304.827 195.351L304.869 186.061L303.092 186.53L303.095 185.814L305.202 184.914L305.933 184.917L305.886 195.356L304.827 195.351ZM307.052 197.195L307.946 194.038L309.065 194.043L307.798 197.198L307.052 197.195ZM315.396 195.398L315.407 193.057L310.083 193.033L310.087 192.243L315.249 184.959L316.472 184.964L316.44 192.152L318.035 192.159L318.031 193.069L316.436 193.061L316.425 195.403L315.396 195.398ZM311.25 192.129L315.456 192.147L315.482 186.123L311.25 192.129ZM323.041 195.611C322.345 195.608 321.739 195.481 321.223 195.23C320.708 194.969 320.297 194.62 319.99 194.181C319.694 193.732 319.502 193.234 319.415 192.687L320.444 192.692C320.571 193.299 320.862 193.787 321.318 194.157C321.773 194.527 322.354 194.713 323.06 194.717C323.597 194.719 324.055 194.597 324.434 194.35C324.812 194.103 325.102 193.771 325.303 193.355C325.504 192.928 325.605 192.461 325.607 191.954C325.61 191.417 325.508 190.94 325.301 190.521C325.104 190.103 324.817 189.778 324.44 189.548C324.073 189.318 323.641 189.201 323.144 189.199C322.528 189.197 322.005 189.323 321.577 189.58C321.158 189.837 320.838 190.178 320.618 190.605L319.619 190.6L320.509 184.982L325.937 185.006L325.933 185.916L321.325 185.895L320.698 189.337C320.948 189.03 321.287 188.783 321.715 188.596C322.154 188.4 322.656 188.302 323.223 188.305C323.72 188.307 324.177 188.399 324.594 188.579C325.01 188.76 325.367 189.015 325.664 189.345C325.971 189.664 326.207 190.048 326.374 190.496C326.542 190.934 326.624 191.417 326.622 191.944C326.619 192.431 326.538 192.898 326.377 193.344C326.226 193.791 325.995 194.183 325.685 194.519C325.386 194.856 325.012 195.123 324.563 195.32C324.125 195.517 323.618 195.614 323.041 195.611ZM332.352 195.653C331.616 195.65 330.995 195.508 330.489 195.227C329.984 194.936 329.578 194.557 329.272 194.088C328.966 193.61 328.744 193.077 328.608 192.49C328.471 191.892 328.404 191.286 328.407 190.669C328.412 189.516 328.571 188.503 328.883 187.629C329.205 186.756 329.665 186.077 330.264 185.592C330.863 185.098 331.58 184.853 332.415 184.856C333.051 184.859 333.597 184.986 334.053 185.237C334.519 185.487 334.886 185.822 335.152 186.241C335.429 186.659 335.596 187.132 335.653 187.66L334.684 187.655C334.587 187.058 334.336 186.6 333.929 186.28C333.533 185.95 333.027 185.784 332.411 185.781C331.854 185.778 331.351 185.945 330.902 186.281C330.463 186.617 330.108 187.138 329.836 187.842C329.575 188.547 329.422 189.436 329.377 190.51C329.377 190.539 329.377 190.569 329.377 190.599C329.377 190.619 329.376 190.644 329.376 190.674C329.537 190.336 329.762 190.029 330.052 189.752C330.351 189.465 330.705 189.238 331.113 189.071C331.532 188.894 331.994 188.806 332.501 188.809C333.098 188.811 333.659 188.953 334.185 189.234C334.71 189.514 335.131 189.909 335.447 190.417C335.773 190.916 335.934 191.503 335.931 192.179C335.929 192.756 335.787 193.312 335.506 193.848C335.225 194.373 334.816 194.809 334.277 195.154C333.749 195.49 333.107 195.656 332.352 195.653ZM332.296 194.728C332.783 194.73 333.221 194.623 333.61 194.406C333.998 194.189 334.303 193.892 334.523 193.515C334.744 193.138 334.855 192.711 334.857 192.234C334.859 191.727 334.752 191.289 334.535 190.92C334.318 190.542 334.016 190.252 333.629 190.051C333.242 189.841 332.805 189.735 332.318 189.732C331.831 189.73 331.388 189.843 330.99 190.069C330.601 190.286 330.291 190.588 330.061 190.975C329.831 191.352 329.714 191.769 329.712 192.226C329.71 192.703 329.818 193.131 330.035 193.51C330.262 193.889 330.569 194.188 330.955 194.409C331.352 194.619 331.799 194.726 332.296 194.728ZM337.704 195.572C337.485 195.571 337.301 195.496 337.153 195.346C337.014 195.196 336.945 195.012 336.946 194.793C336.947 194.575 337.018 194.396 337.158 194.258C337.307 194.109 337.492 194.035 337.71 194.036C337.929 194.037 338.108 194.113 338.246 194.262C338.395 194.402 338.468 194.587 338.467 194.815C338.467 195.024 338.391 195.203 338.241 195.351C338.102 195.5 337.922 195.573 337.704 195.572ZM340.142 195.509L340.145 194.793C340.873 194.219 341.562 193.641 342.211 193.057C342.859 192.474 343.434 191.895 343.933 191.32C344.443 190.746 344.843 190.186 345.134 189.64C345.425 189.085 345.571 188.544 345.573 188.017C345.575 187.639 345.507 187.281 345.369 186.942C345.242 186.604 345.029 186.329 344.732 186.119C344.435 185.909 344.023 185.803 343.496 185.801C342.999 185.798 342.585 185.906 342.256 186.123C341.927 186.34 341.683 186.628 341.522 186.985C341.361 187.332 341.28 187.714 341.278 188.132L340.264 188.127C340.267 187.461 340.409 186.89 340.689 186.414C340.97 185.929 341.349 185.557 341.828 185.301C342.316 185.035 342.878 184.903 343.515 184.906C344.101 184.909 344.627 185.02 345.094 185.241C345.56 185.462 345.931 185.802 346.208 186.26C346.484 186.719 346.621 187.301 346.617 188.007C346.615 188.504 346.504 189.005 346.283 189.511C346.072 190.008 345.791 190.493 345.441 190.969C345.091 191.445 344.701 191.905 344.272 192.351C343.842 192.796 343.403 193.212 342.954 193.597C342.515 193.983 342.1 194.329 341.711 194.636L346.975 194.659L346.971 195.539L340.142 195.509ZM352.102 195.741C351.436 195.738 350.835 195.616 350.3 195.375C349.774 195.124 349.353 194.759 349.037 194.281C348.731 193.792 348.57 193.195 348.553 192.489L349.612 192.494C349.62 192.911 349.722 193.295 349.92 193.644C350.117 193.992 350.399 194.277 350.766 194.497C351.133 194.708 351.58 194.814 352.106 194.816C352.633 194.819 353.071 194.721 353.42 194.524C353.769 194.327 354.034 194.06 354.214 193.722C354.404 193.375 354.501 192.998 354.502 192.59C354.505 192.063 354.377 191.64 354.12 191.321C353.873 190.992 353.541 190.752 353.124 190.601C352.708 190.45 352.256 190.373 351.768 190.371L350.993 190.368L350.997 189.473L351.772 189.476C352.508 189.48 353.076 189.313 353.475 188.977C353.884 188.641 354.09 188.179 354.092 187.593C354.094 187.106 353.932 186.697 353.606 186.368C353.289 186.038 352.803 185.872 352.146 185.869C351.53 185.866 351.032 186.043 350.653 186.399C350.283 186.746 350.073 187.197 350.02 187.754L348.947 187.749C348.979 187.202 349.13 186.721 349.401 186.304C349.671 185.878 350.04 185.547 350.509 185.31C350.987 185.064 351.539 184.942 352.166 184.945C352.822 184.948 353.373 185.069 353.819 185.31C354.275 185.541 354.612 185.855 354.829 186.254C355.056 186.643 355.168 187.071 355.166 187.538C355.165 187.886 355.104 188.219 354.983 188.536C354.862 188.844 354.667 189.121 354.398 189.369C354.138 189.606 353.799 189.774 353.381 189.871C353.798 189.963 354.17 190.123 354.498 190.353C354.825 190.584 355.087 190.888 355.284 191.267C355.481 191.635 355.578 192.073 355.576 192.58C355.574 193.147 355.442 193.673 355.181 194.159C354.921 194.635 354.531 195.021 354.013 195.317C353.495 195.603 352.858 195.744 352.102 195.741Z" fill="#403C3C"/>
</g>
<g filter="url(#filter2_n_2_27)">
<path d="M326 102L356.003 175.786L376.539 150.848L379.502 147.248L326 102Z" fill="#095342"/>
<path d="M391.027 139.793L422.768 136.258L326 102L391.027 139.793Z" fill="#095342"/>
<path d="M379.502 147.248L386.327 159.974L391.027 139.793L326 102L379.502 147.248Z" fill="#095342"/>
<path d="M379.502 147.248L386.327 159.974L391.027 139.793L326 102L379.502 147.248Z" fill="black" fill-opacity="0.2"/>
<path d="M386.327 159.974L379.502 147.248L376.539 150.848L386.327 159.974Z" fill="#095342"/>
<path d="M386.327 159.974L379.502 147.248L376.539 150.848L386.327 159.974Z" fill="black" fill-opacity="0.4"/>
</g>
<g filter="url(#filter3_n_2_27)">
<path d="M146.768 334L116.765 407.786L96.2295 382.848L93.2656 379.248L146.768 334Z" fill="#FDF2CF"/>
<path d="M81.741 371.793L50.0001 368.258L146.768 334L81.741 371.793Z" fill="#FDF2CF"/>
<path d="M93.2656 379.248L86.441 391.974L81.741 371.793L146.768 334L93.2656 379.248Z" fill="#FDF2CF"/>
<path d="M93.2656 379.248L86.441 391.974L81.741 371.793L146.768 334L93.2656 379.248Z" fill="black" fill-opacity="0.2"/>
<path d="M86.441 391.974L93.2656 379.248L96.2295 382.848L86.441 391.974Z" fill="#FDF2CF"/>
<path d="M86.441 391.974L93.2656 379.248L96.2295 382.848L86.441 391.974Z" fill="black" fill-opacity="0.4"/>
</g>
</g>
<defs>
<filter id="filter0_dn_2_27" x="50.6036" y="197.421" width="413.442" height="208.617" filterUnits="userSpaceOnUse" color-interpolation-filters="sRGB">
<feFlood flood-opacity="0" result="BackgroundImageFix"/>
<feColorMatrix in="SourceAlpha" type="matrix" values="0 0 0 0 0 0 0 0 0 0 0 0 0 0 0 0 0 0 127 0" result="hardAlpha"/>
<feOffset dx="26.6293" dy="26.6293"/>
<feGaussianBlur stdDeviation="13.3147"/>
<feComposite in2="hardAlpha" operator="out"/>
<feColorMatrix type="matrix" values="0 0 0 0 0 0 0 0 0 0 0 0 0 0 0 0 0 0 0.1 0"/>
<feBlend mode="normal" in2="BackgroundImageFix" result="effect1_dropShadow_2_27"/>
<feBlend mode="normal" in="SourceGraphic" in2="BackgroundImageFix" result="shape"/>
<feTurbulence type="fractalNoise" baseFrequency="10 10" stitchTiles="stitch" numOctaves="3" result="noise" seed="4926" />
<feColorMatrix in="noise" type="luminanceToAlpha" result="alphaNoise" />
<feComponentTransfer in="alphaNoise" result="coloredNoise1">
<feFuncA type="discrete" tableValues="1 1 1 1 1 1 1 1 1 1 1 1 1 1 1 1 1 1 1 1 1 1 1 1 1 1 1 1 1 1 1 1 1 1 1 1 1 1 1 1 1 1 1 1 1 1 1 1 1 1 1 0 0 0 0 0 0 0 0 0 0 0 0 0 0 0 0 0 0 0 0 0 0 0 0 0 0 0 0 0 0 0 0 0 0 0 0 0 0 0 0 0 0 0 0 0 0 0 0 0 "/>
</feComponentTransfer>
<feComposite operator="in" in2="shape" in="coloredNoise1" result="noise1Clipped" />
<feFlood flood-color="rgba(0, 0, 0, 0.05)" result="color1Flood" />
<feComposite operator="in" in2="noise1Clipped" in="color1Flood" result="color1" />
<feMerge result="effect2_noise_2_27">
<feMergeNode in="shape" />
<feMergeNode in="color1" />
</feMerge>
<feBlend mode="normal" in="effect2_noise_2_27" in2="effect1_dropShadow_2_27" result="effect2_noise_2_27"/>
</filter>
<filter id="filter1_dn_2_27" x="29" y="144" width="403.035" height="145.058" filterUnits="userSpaceOnUse" color-interpolation-filters="sRGB">
<feFlood flood-opacity="0" result="BackgroundImageFix"/>
<feColorMatrix in="SourceAlpha" type="matrix" values="0 0 0 0 0 0 0 0 0 0 0 0 0 0 0 0 0 0 127 0" result="hardAlpha"/>
<feOffset dx="26.6293" dy="26.6293"/>
<feGaussianBlur stdDeviation="13.3147"/>
<feComposite in2="hardAlpha" operator="out"/>
<feColorMatrix type="matrix" values="0 0 0 0 0 0 0 0 0 0 0 0 0 0 0 0 0 0 0.1 0"/>
<feBlend mode="normal" in2="BackgroundImageFix" result="effect1_dropShadow_2_27"/>
<feBlend mode="normal" in="SourceGraphic" in2="BackgroundImageFix" result="shape"/>
<feTurbulence type="fractalNoise" baseFrequency="10 10" stitchTiles="stitch" numOctaves="3" result="noise" seed="4926" />
<feColorMatrix in="noise" type="luminanceToAlpha" result="alphaNoise" />
<feComponentTransfer in="alphaNoise" result="coloredNoise1">
<feFuncA type="discrete" tableValues="1 1 1 1 1 1 1 1 1 1 1 1 1 1 1 1 1 1 1 1 1 1 1 1 1 1 1 1 1 1 1 1 1 1 1 1 1 1 1 1 1 1 1 1 1 1 1 1 1 1 1 0 0 0 0 0 0 0 0 0 0 0 0 0 0 0 0 0 0 0 0 0 0 0 0 0 0 0 0 0 0 0 0 0 0 0 0 0 0 0 0 0 0 0 0 0 0 0 0 0 "/>
</feComponentTransfer>
<feComposite operator="in" in2="shape" in="coloredNoise1" result="noise1Clipped" />
<feFlood flood-color="rgba(0, 0, 0, 0.05)" result="color1Flood" />
<feComposite operator="in" in2="noise1Clipped" in="color1Flood" result="color1" />
<feMerge result="effect2_noise_2_27">
<feMergeNode in="shape" />
<feMergeNode in="color1" />
</feMerge>
<feBlend mode="normal" in="effect2_noise_2_27" in2="effect1_dropShadow_2_27" result="effect2_noise_2_27"/>
</filter>
<filter id="filter2_n_2_27" x="326" y="102" width="96.7679" height="73.7856" filterUnits="userSpaceOnUse" color-interpolation-filters="sRGB">
<feFlood flood-opacity="0" result="BackgroundImageFix"/>
<feBlend mode="normal" in="SourceGraphic" in2="BackgroundImageFix" result="shape"/>
<feTurbulence type="fractalNoise" baseFrequency="1.6534390449523926 1.6534390449523926" stitchTiles="stitch" numOctaves="3" result="noise" seed="3624" />
<feColorMatrix in="noise" type="luminanceToAlpha" result="alphaNoise" />
<feComponentTransfer in="alphaNoise" result="coloredNoise1">
<feFuncA type="discrete" tableValues="1 1 1 1 1 1 1 1 1 1 1 1 1 1 1 1 1 1 1 1 1 1 1 1 1 1 1 1 1 1 1 1 1 1 1 1 1 1 1 1 1 1 1 1 1 1 1 1 1 1 1 0 0 0 0 0 0 0 0 0 0 0 0 0 0 0 0 0 0 0 0 0 0 0 0 0 0 0 0 0 0 0 0 0 0 0 0 0 0 0 0 0 0 0 0 0 0 0 0 0 "/>
</feComponentTransfer>
<feComposite operator="in" in2="shape" in="coloredNoise1" result="noise1Clipped" />
<feFlood flood-color="rgba(0, 0, 0, 0.25)" result="color1Flood" />
<feComposite operator="in" in2="noise1Clipped" in="color1Flood" result="color1" />
<feMerge result="effect1_noise_2_27">
<feMergeNode in="shape" />
<feMergeNode in="color1" />
</feMerge>
</filter>
<filter id="filter3_n_2_27" x="50" y="334" width="96.7681" height="73.7856" filterUnits="userSpaceOnUse" color-interpolation-filters="sRGB">
<feFlood flood-opacity="0" result="BackgroundImageFix"/>
<feBlend mode="normal" in="SourceGraphic" in2="BackgroundImageFix" result="shape"/>
<feTurbulence type="fractalNoise" baseFrequency="1.6534390449523926 1.6534390449523926" stitchTiles="stitch" numOctaves="3" result="noise" seed="3624" />
<feColorMatrix in="noise" type="luminanceToAlpha" result="alphaNoise" />
<feComponentTransfer in="alphaNoise" result="coloredNoise1">
<feFuncA type="discrete" tableValues="1 1 1 1 1 1 1 1 1 1 1 1 1 1 1 1 1 1 1 1 1 1 1 1 1 1 1 1 1 1 1 1 1 1 1 1 1 1 1 1 1 1 1 1 1 1 1 1 1 1 1 0 0 0 0 0 0 0 0 0 0 0 0 0 0 0 0 0 0 0 0 0 0 0 0 0 0 0 0 0 0 0 0 0 0 0 0 0 0 0 0 0 0 0 0 0 0 0 0 0 "/>
</feComponentTransfer>
<feComposite operator="in" in2="shape" in="coloredNoise1" result="noise1Clipped" />
<feFlood flood-color="rgba(0, 0, 0, 0.25)" result="color1Flood" />
<feComposite operator="in" in2="noise1Clipped" in="color1Flood" result="color1" />
<feMerge result="effect1_noise_2_27">
<feMergeNode in="shape" />
<feMergeNode in="color1" />
</feMerge>
</filter>
<clipPath id="clip0_2_27">
<path d="M0 0H440V344C440 410.274 386.274 464 320 464H120C53.7258 464 0 410.274 0 344V0Z" fill="white"/>
</clipPath>
</defs>
</svg>
