<svg width="440" height="469" viewBox="0 0 440 469" fill="none" xmlns="http://www.w3.org/2000/svg">
<path d="M0 0H440V349C440 415.274 386.274 469 320 469H120C53.7258 469 0 415.274 0 349V0Z" fill="#B6CCC7"/>
<g filter="url(#filter0_n_2_60)">
<path d="M220.506 366.35V167.225C220.506 167.225 204.531 183.425 178.431 190.175C152.331 196.925 131.856 193.325 131.856 193.325C131.856 193.325 126.722 237.65 148.506 289.85C170.29 342.05 220.506 366.35 220.506 366.35Z" fill="#095342"/>
<path d="M263.706 191.075C239.856 186.8 220.506 167.225 220.506 167.225V366.35C220.506 366.35 269.106 344.75 291.831 289.85C314.556 234.95 308.931 193.775 308.931 193.775C308.931 193.775 287.556 195.35 263.706 191.075Z" fill="#053128"/>
<path d="M220.506 393.575C220.506 393.575 287.199 365 317.481 282.875C334.572 236.525 332.781 173.975 332.781 173.975C332.781 173.975 297.456 176.45 270.231 169.025C243.006 161.6 220.506 140 220.506 140V167.225C220.506 167.225 239.856 186.8 263.706 191.075C287.556 195.35 308.931 193.775 308.931 193.775C308.931 193.775 314.556 234.95 291.831 289.85C269.106 344.75 220.506 366.35 220.506 366.35V393.575Z" fill="#FDF2CF"/>
<path d="M220.506 393.575C220.506 393.575 287.199 365 317.481 282.875C334.572 236.525 332.781 173.975 332.781 173.975C332.781 173.975 297.456 176.45 270.231 169.025C243.006 161.6 220.506 140 220.506 140V167.225C220.506 167.225 239.856 186.8 263.706 191.075C287.556 195.35 308.931 193.775 308.931 193.775C308.931 193.775 314.556 234.95 291.831 289.85C269.106 344.75 220.506 366.35 220.506 366.35V393.575Z" fill="black" fill-opacity="0.2"/>
<path d="M220.506 140C220.506 140 200.031 161.825 169.881 169.025C139.731 176.225 108.006 173.975 108.006 173.975C108.006 173.975 107.224 238.775 123.306 280.4C158.253 370.85 220.506 393.575 220.506 393.575V366.35C220.506 366.35 170.29 342.05 148.506 289.85C126.722 237.65 131.856 193.325 131.856 193.325C131.856 193.325 152.331 196.925 178.431 190.175C204.531 183.425 220.506 167.225 220.506 167.225V140Z" fill="#FDF2CF"/>
</g>
<defs>
<filter id="filter0_n_2_60" x="108" y="140" width="224.835" height="253.575" filterUnits="userSpaceOnUse" color-interpolation-filters="sRGB">
<feFlood flood-opacity="0" result="BackgroundImageFix"/>
<feBlend mode="normal" in="SourceGraphic" in2="BackgroundImageFix" result="shape"/>
<feTurbulence type="fractalNoise" baseFrequency="2.2222223281860352 2.2222223281860352" stitchTiles="stitch" numOctaves="3" result="noise" seed="4914" />
<feColorMatrix in="noise" type="luminanceToAlpha" result="alphaNoise" />
<feComponentTransfer in="alphaNoise" result="coloredNoise1">
<feFuncA type="discrete" tableValues="1 1 1 1 1 1 1 1 1 1 1 1 1 1 1 1 1 1 1 1 1 1 1 1 1 1 1 1 1 1 1 1 1 1 1 1 1 1 1 1 1 1 1 1 1 1 1 1 1 1 1 0 0 0 0 0 0 0 0 0 0 0 0 0 0 0 0 0 0 0 0 0 0 0 0 0 0 0 0 0 0 0 0 0 0 0 0 0 0 0 0 0 0 0 0 0 0 0 0 0 "/>
</feComponentTransfer>
<feComposite operator="in" in2="shape" in="coloredNoise1" result="noise1Clipped" />
<feFlood flood-color="rgba(0, 0, 0, 0.25)" result="color1Flood" />
<feComposite operator="in" in2="noise1Clipped" in="color1Flood" result="color1" />
<feMerge result="effect1_noise_2_60">
<feMergeNode in="shape" />
<feMergeNode in="color1" />
</feMerge>
</filter>
</defs>
</svg>
