<svg width="440" height="462" viewBox="0 0 440 462" fill="none" xmlns="http://www.w3.org/2000/svg">
<g clip-path="url(#clip0_2_76)">
<path d="M0 0H440V342C440 408.274 386.274 462 320 462H120C53.7258 462 0 408.274 0 342V0Z" fill="#095342" fill-opacity="0.3"/>
<g filter="url(#filter0_n_2_76)">
<path fill-rule="evenodd" clip-rule="evenodd" d="M200.624 158.154C200.624 158.154 193.079 170.583 191.341 178.277C189.993 184.241 188.7 190.346 187.448 196.333C187.448 196.333 199.442 185.785 214.016 194.144C228.591 202.503 231.679 217.844 231.679 217.844C233.31 209.611 235.918 197.887 238.688 191.184C240.536 186.714 243.415 182.045 246.196 178.064C246.196 178.064 240.289 173.886 239.945 171.32C239.6 168.753 242.6 162.23 242.6 162.23L221.678 152.262C221.678 152.262 215.901 156.821 212.35 157.598C208.799 158.375 201.711 156.738 201.711 156.738L200.624 158.154ZM218.676 185.34C213.45 184.961 209.696 181.184 209.059 175.983C208.26 169.474 214.36 163.146 220.858 164.034C226.706 164.833 230.661 170.405 229.773 176.24C228.929 181.781 224.266 185.746 218.676 185.34Z" fill="#095342"/>
<path fill-rule="evenodd" clip-rule="evenodd" d="M184.12 212.202C181.625 223.887 179.263 234.017 176.918 240.199C175.144 244.878 172.322 249.383 169.563 253.116C169.563 253.116 174.634 255.634 175.662 258.694C176.903 262.388 172.705 268.225 172.705 268.225L194.019 278.577C194.019 278.577 200.631 273.118 203.923 272.526C207.215 271.934 214.924 273.219 214.924 273.219C215.926 271.699 216.996 269.984 218.127 268.05C223.387 259.053 226.88 242.859 228.63 233.759C228.63 233.759 220.331 241.351 209.691 239.272C207.482 238.84 201.496 237.364 198.409 234.427C185.217 221.876 184.12 212.202 184.12 212.202ZM196.081 266.201C190.279 266.149 185.456 261.573 185.501 255.771C185.547 249.883 190.679 245.229 196.56 245.524C202.442 245.82 206.215 249.185 206.844 254.993C207.473 260.8 202.149 266.256 196.081 266.201Z" fill="#095342"/>
<path d="M209.059 175.983C209.696 181.184 213.45 184.961 218.676 185.34C224.266 185.746 228.929 181.781 229.773 176.24C230.661 170.405 226.706 164.833 220.858 164.034C214.36 163.146 208.26 169.474 209.059 175.983Z" fill="#769B93"/>
<path d="M185.501 255.771C185.456 261.573 190.279 266.149 196.081 266.201C202.149 266.256 207.473 260.8 206.844 254.993C206.215 249.185 202.442 245.82 196.56 245.524C190.679 245.229 185.547 249.883 185.501 255.771Z" fill="#769B93"/>
<path d="M229.961 227.138C229.961 227.138 230.61 223.241 231.679 217.844C231.679 217.844 228.591 202.503 214.016 194.144C199.442 185.785 187.448 196.333 187.448 196.333C186.307 201.785 185.201 207.139 184.12 212.202C184.12 212.202 185.217 221.876 198.409 234.427C201.496 237.364 207.482 238.84 209.691 239.272C220.331 241.351 228.63 233.759 228.63 233.759C229.427 229.614 229.961 227.138 229.961 227.138Z" fill="#769B93"/>
<path d="M210.056 146.724L205.284 152.087L203.109 154.918C203.109 154.918 208.979 156.074 212.534 155.12C215.561 154.308 219.565 151.255 219.565 151.255L210.056 146.724Z" fill="#095342"/>
<path d="M247.801 175.822C251.277 171.083 254.223 167.768 254.223 167.768L244.924 163.338C244.924 163.338 241.976 167.564 242.608 170.395C243.247 173.258 247.801 175.822 247.801 175.822Z" fill="#095342"/>
<path d="M196.34 279.705L205.625 284.215C205.625 284.215 208.528 282.375 213.39 275.472C213.39 275.472 208.033 274.006 204.7 274.709C200.978 275.493 196.34 279.705 196.34 279.705Z" fill="#095342"/>
<path d="M161.31 262.689L170.384 267.097C170.384 267.097 173.443 263.798 173.295 260.58C173.146 257.362 168.339 254.729 168.339 254.729C164.61 259.521 161.31 262.689 161.31 262.689Z" fill="#095342"/>
<path fill-rule="evenodd" clip-rule="evenodd" d="M157.5 263.651L206.55 286.878C206.55 286.878 215.494 276.214 220.346 268.419C226.264 258.913 231.958 227.471 231.958 227.471C231.958 227.471 234.842 208.288 239.133 196.732C241.603 190.078 242.803 186.144 246.677 180.197C250.404 174.477 258.217 167.065 258.217 167.065L209.87 143.727C209.87 143.727 197.517 156.268 191.932 170.62C185.007 188.417 184.906 203.208 181.06 218.079C178.242 228.974 177.386 235.927 171.888 245.748C167.492 253.6 157.5 263.651 157.5 263.651ZM191.341 178.277C193.079 170.583 200.624 158.154 200.624 158.154L201.711 156.738L203.109 154.918L205.284 152.087L210.056 146.724L219.565 151.255L221.678 152.262L242.6 162.23L244.924 163.338L254.223 167.768C254.223 167.768 251.277 171.083 247.801 175.822C247.275 176.539 246.737 177.288 246.196 178.064C243.415 182.045 240.536 186.714 238.688 191.184C235.918 197.887 233.31 209.611 231.679 217.844C230.61 223.241 229.961 227.138 229.961 227.138C229.961 227.138 229.427 229.614 228.63 233.759C226.88 242.859 223.387 259.053 218.127 268.05C216.996 269.984 215.926 271.699 214.924 273.219C214.394 274.024 213.882 274.774 213.39 275.472C208.528 282.375 205.625 284.215 205.625 284.215L196.34 279.705L194.019 278.577L172.705 268.225L170.384 267.097L161.31 262.689C161.31 262.689 164.61 259.521 168.339 254.729C168.743 254.21 169.152 253.671 169.563 253.116C172.322 249.383 175.144 244.878 176.918 240.199C179.263 234.017 181.625 223.887 184.12 212.202C185.201 207.139 186.307 201.785 187.448 196.333C188.7 190.346 189.993 184.241 191.341 178.277Z" fill="#769B93"/>
<path fill-rule="evenodd" clip-rule="evenodd" d="M152.396 264.17C152.396 264.17 168.254 250.388 172.886 235.649C177.519 220.91 178.396 213.529 185.312 182.975C192.227 152.421 210.092 141.027 210.092 141.027L263.433 165.881C263.433 165.881 249.703 177.698 245.383 187.965C238.208 205.018 235.593 224.427 232.551 238.975C229.509 253.523 228.857 258.722 222.861 269.751C217.756 279.142 206.883 290.355 206.883 290.355L152.396 264.17ZM206.55 286.878L157.5 263.651C157.5 263.651 167.492 253.6 171.888 245.748C177.386 235.927 178.242 228.974 181.06 218.079C184.906 203.208 185.007 188.417 191.932 170.62C197.517 156.268 209.87 143.727 209.87 143.727L258.217 167.065C258.217 167.065 250.404 174.477 246.677 180.197C242.803 186.144 241.603 190.078 239.133 196.732C234.842 208.288 231.958 227.471 231.958 227.471C231.958 227.471 226.264 258.913 220.346 268.419C215.494 276.214 206.55 286.878 206.55 286.878Z" fill="#095342"/>
<path d="M212.534 155.12C208.979 156.074 203.109 154.918 203.109 154.918L201.711 156.738C201.711 156.738 208.799 158.375 212.35 157.598C215.901 156.821 221.678 152.262 221.678 152.262L219.565 151.255C219.565 151.255 215.561 154.308 212.534 155.12Z" fill="#769B93"/>
<path d="M247.801 175.822C247.801 175.822 243.247 173.258 242.608 170.395C241.976 167.564 244.924 163.338 244.924 163.338L242.6 162.23C242.6 162.23 239.6 168.753 239.945 171.32C240.289 173.886 246.196 178.064 246.196 178.064C246.737 177.288 247.275 176.539 247.801 175.822Z" fill="#769B93"/>
<path d="M196.34 279.705C196.34 279.705 200.978 275.493 204.7 274.709C208.033 274.006 213.39 275.472 213.39 275.472C213.882 274.774 214.394 274.024 214.924 273.219C214.924 273.219 207.215 271.934 203.923 272.526C200.631 273.118 194.019 278.577 194.019 278.577L196.34 279.705Z" fill="#769B93"/>
<path d="M172.705 268.225C172.705 268.225 176.903 262.388 175.662 258.694C174.634 255.634 169.563 253.116 169.563 253.116C169.152 253.671 168.743 254.21 168.339 254.729C168.339 254.729 173.146 257.362 173.295 260.58C173.443 263.798 170.384 267.097 170.384 267.097L172.705 268.225Z" fill="#769B93"/>
</g>
<g filter="url(#filter1_n_2_76)">
<path d="M252.808 302.412C252.808 302.412 255.143 281.593 250.841 280.804C250.841 280.804 246.403 283.449 247.119 298.404C247.836 313.358 255.88 331.105 256.949 352.581C258.253 378.809 241.758 394.374 249.632 419.426C253.356 431.274 255.129 435.257 265.892 446.619C276.656 457.98 307.01 478.369 307.01 478.369L309.464 464.985C309.464 464.985 291.355 453.264 279.556 436.772C270.882 424.647 264.874 400.974 264.874 400.974C264.874 400.974 266.728 372.286 264.597 353.984C262.216 333.536 252.808 302.412 252.808 302.412Z" fill="#94422D"/>
<path fill-rule="evenodd" clip-rule="evenodd" d="M250.841 280.804C246.538 280.015 243.925 283.489 243.925 283.489L233.669 339.419C233.669 339.419 235.761 353.666 234.688 355.417C233.616 357.167 232.163 358.412 232.163 358.412L234.075 358.763C234.075 358.763 224.52 410.868 222.871 409.084C221.222 407.299 167.387 399.403 167.387 399.403C167.223 402.424 166.743 406.48 165.364 407.432C163.101 408.994 133.799 400.656 133.799 400.656C136.046 403.636 138.08 406.155 141.279 409.439C147.855 416.19 153.431 417.738 160.949 423.422C172.404 432.084 176.275 438.188 188.475 445.763C200.896 453.476 207.294 448.226 215.587 454.194C223.88 460.161 258.799 509.551 258.799 509.551C258.799 509.551 265.643 500.098 272.248 498.183C281.642 495.458 293.56 500.368 301.122 491.619C304.824 487.335 307.01 478.369 307.01 478.369C307.01 478.369 276.656 457.98 265.892 446.619C255.129 435.257 253.356 431.274 249.632 419.426C241.758 394.374 258.253 378.809 256.949 352.581C255.88 331.105 247.836 313.358 247.119 298.404C246.403 283.449 250.841 280.804 250.841 280.804ZM220.6 416.079C215.571 411.759 209.048 409.019 206.53 406.581C204.013 404.143 219.302 412.382 223.644 415.649C227.986 418.915 231.745 421.197 234.494 426.532C235.121 427.749 235.578 428.707 235.881 429.751C236.183 430.795 235.315 430.141 233.188 428.269C231.061 426.397 225.841 420.58 220.6 416.079Z" fill="#B2563F"/>
<path d="M206.53 406.581C209.048 409.019 215.571 411.759 220.6 416.079C225.841 420.58 231.061 426.397 233.188 428.269C235.315 430.141 236.183 430.795 235.881 429.751C235.578 428.707 235.121 427.749 234.494 426.532C231.745 421.197 227.986 418.915 223.644 415.649C219.302 412.382 204.013 404.143 206.53 406.581Z" fill="#A34730"/>
<path d="M138.478 306.152C138.478 306.152 127.253 302.453 121.795 300.128C110.72 295.411 102.515 291.761 97.2535 291.152C97.2535 291.152 100.148 299.617 107.661 304.454C115.174 309.29 135.809 318.015 135.809 318.015L138.478 306.152Z" fill="#B0593E"/>
<path d="M90.7232 294.43C87.695 303.757 129.451 325.743 130.534 327.918C130.927 328.708 130.985 329.363 130.811 329.945L133.476 330.735L135.809 318.015C135.809 318.015 115.174 309.29 107.661 304.454C100.148 299.617 97.2535 291.152 97.2535 291.152C93.8059 290.754 91.6222 291.661 90.7232 294.43Z" fill="#903F2C"/>
<path d="M130.811 329.945C130.097 332.339 125.481 333.491 124.303 337.646C124.303 337.646 129.466 344.522 138.939 346.753C150.387 349.449 169.056 346.879 169.056 346.879C167.132 344.983 164.69 343.168 162.028 342.093C155.587 339.493 139.648 337.495 139.648 337.495C139.648 337.495 141.947 336.782 142.21 335.348C142.473 333.914 139.1 332.401 139.1 332.401L133.476 330.735L130.811 329.945Z" fill="#B3553E"/>
<path d="M124.303 337.646C121.506 347.509 128.326 350.736 128.326 350.736L142.277 352.8L156.315 354.386C156.315 354.386 172.919 355.454 173.269 353.542C173.475 352.42 171.787 349.569 169.056 346.879C169.056 346.879 150.387 349.449 138.939 346.753C129.466 344.522 124.303 337.646 124.303 337.646Z" fill="#964029"/>
<path d="M124.732 370.335C124.732 370.335 120.347 374.585 119.721 378.804C118.792 385.057 125.728 389.837 130.388 396.078C130.66 396.442 130.924 396.797 131.181 397.142C131.181 397.142 140.484 400.333 146.681 401.536C153.432 402.846 159.159 406.241 164.165 403.19C166.305 401.886 165.522 398.801 163.208 395.178C160.108 390.326 157.007 385.642 149.016 380.717C145.702 378.675 140.485 377.671 136.069 375.873C129.839 373.335 124.732 370.335 124.732 370.335Z" fill="#B4553F"/>
<path d="M146.681 401.536C140.484 400.333 131.181 397.142 131.181 397.142C132.127 398.415 132.977 399.566 133.799 400.656C133.799 400.656 163.101 408.994 165.364 407.432C166.743 406.48 167.223 402.424 167.387 399.403C167.492 397.469 167.467 395.959 167.467 395.959L163.208 395.178C165.522 398.801 166.305 401.886 164.165 403.19C159.159 406.241 153.432 402.846 146.681 401.536Z" fill="#913F29"/>
<path d="M221.485 405.865L167.467 395.959C167.467 395.959 167.492 397.469 167.387 399.403C167.387 399.403 221.222 407.299 222.871 409.084C224.52 410.868 234.075 358.763 234.075 358.763L232.163 358.412L230.25 358.062L221.485 405.865Z" fill="#904331"/>
<path d="M120.574 360.679C120.741 365.156 124.732 370.335 124.732 370.335C124.732 370.335 137.017 372.774 144.547 375.451C149.493 377.21 151.454 378.2 156.927 380.686C163.158 383.516 165.914 388.263 172.176 386.447C172.176 386.447 164.436 377.759 158.155 373.993C148.653 368.298 147.033 369.978 135.735 366.918C129.555 365.244 120.574 360.679 120.574 360.679Z" fill="#94422D"/>
<path d="M128.326 350.736C128.326 350.736 120.386 355.668 120.574 360.679C120.574 360.679 129.555 365.244 135.735 366.918C147.033 369.978 148.653 368.298 158.155 373.993C164.436 377.759 172.176 386.447 172.176 386.447C172.834 386.256 173.253 385.824 173.461 385.2C174.905 380.872 163.947 366.656 156.044 361.254C152.616 358.911 149.211 357.417 144.229 355.629C139.036 353.765 130.137 351.004 130.137 351.004L128.326 350.736Z" fill="#B5553F"/>
<path d="M139.1 332.401C139.1 332.401 142.473 333.914 142.21 335.348C141.947 336.782 139.648 337.495 139.648 337.495C139.648 337.495 155.587 339.493 162.028 342.093C164.69 343.168 167.132 344.983 169.056 346.879C171.787 349.569 173.475 352.42 173.269 353.542C172.919 355.454 156.315 354.386 156.315 354.386L142.277 352.8L130.137 351.004C130.137 351.004 139.036 353.765 144.229 355.629C149.211 357.417 152.616 358.911 156.044 361.254C163.947 366.656 174.905 380.872 173.461 385.2L217.852 393.34L243.982 245.454L157.937 229.675L139.1 332.401Z" fill="#095342"/>
<path d="M172.176 386.447C165.914 388.263 163.158 383.516 156.927 380.686C151.454 378.2 149.493 377.21 144.547 375.451C137.017 372.774 124.732 370.335 124.732 370.335C124.732 370.335 129.839 373.335 136.069 375.873C140.485 377.671 145.702 378.675 149.016 380.717C157.007 385.642 160.108 390.326 163.208 395.178L167.467 395.959L221.485 405.865L230.25 358.062L233.669 339.419L243.925 283.489L253.655 230.428L155.659 212.458L138.478 306.152L135.809 318.015L133.476 330.735L139.1 332.401L157.937 229.675L243.982 245.454L217.852 393.34L173.461 385.2C173.253 385.824 172.834 386.256 172.176 386.447Z" fill="#16211F"/>
</g>
</g>
<defs>
<filter id="filter0_n_2_76" x="152.396" y="141.027" width="111.037" height="149.328" filterUnits="userSpaceOnUse" color-interpolation-filters="sRGB">
<feFlood flood-opacity="0" result="BackgroundImageFix"/>
<feBlend mode="normal" in="SourceGraphic" in2="BackgroundImageFix" result="shape"/>
<feTurbulence type="fractalNoise" baseFrequency="1.1111111640930176 1.1111111640930176" stitchTiles="stitch" numOctaves="3" result="noise" seed="8557" />
<feColorMatrix in="noise" type="luminanceToAlpha" result="alphaNoise" />
<feComponentTransfer in="alphaNoise" result="coloredNoise1">
<feFuncA type="discrete" tableValues="1 1 1 1 1 1 1 1 1 1 1 1 1 1 1 1 1 1 1 1 1 1 1 1 1 1 1 1 1 1 1 1 1 1 1 1 1 1 1 1 1 1 1 1 1 1 1 1 1 1 1 0 0 0 0 0 0 0 0 0 0 0 0 0 0 0 0 0 0 0 0 0 0 0 0 0 0 0 0 0 0 0 0 0 0 0 0 0 0 0 0 0 0 0 0 0 0 0 0 0 "/>
</feComponentTransfer>
<feComposite operator="in" in2="shape" in="coloredNoise1" result="noise1Clipped" />
<feFlood flood-color="rgba(0, 0, 0, 0.25)" result="color1Flood" />
<feComposite operator="in" in2="noise1Clipped" in="color1Flood" result="color1" />
<feMerge result="effect1_noise_2_76">
<feMergeNode in="shape" />
<feMergeNode in="color1" />
</feMerge>
</filter>
<filter id="filter1_n_2_76" x="90.5662" y="212.458" width="218.898" height="297.093" filterUnits="userSpaceOnUse" color-interpolation-filters="sRGB">
<feFlood flood-opacity="0" result="BackgroundImageFix"/>
<feBlend mode="normal" in="SourceGraphic" in2="BackgroundImageFix" result="shape"/>
<feTurbulence type="fractalNoise" baseFrequency="1.2345679998397827 1.2345679998397827" stitchTiles="stitch" numOctaves="3" result="noise" seed="3555" />
<feColorMatrix in="noise" type="luminanceToAlpha" result="alphaNoise" />
<feComponentTransfer in="alphaNoise" result="coloredNoise1">
<feFuncA type="discrete" tableValues="1 1 1 1 1 1 1 1 1 1 1 1 1 1 1 1 1 1 1 1 1 1 1 1 1 1 1 1 1 1 1 1 1 1 1 1 1 1 1 1 1 1 1 1 1 1 1 1 1 1 1 0 0 0 0 0 0 0 0 0 0 0 0 0 0 0 0 0 0 0 0 0 0 0 0 0 0 0 0 0 0 0 0 0 0 0 0 0 0 0 0 0 0 0 0 0 0 0 0 0 "/>
</feComponentTransfer>
<feComposite operator="in" in2="shape" in="coloredNoise1" result="noise1Clipped" />
<feFlood flood-color="rgba(0, 0, 0, 0.25)" result="color1Flood" />
<feComposite operator="in" in2="noise1Clipped" in="color1Flood" result="color1" />
<feMerge result="effect1_noise_2_76">
<feMergeNode in="shape" />
<feMergeNode in="color1" />
</feMerge>
</filter>
<clipPath id="clip0_2_76">
<path d="M0 0H440V342C440 408.274 386.274 462 320 462H120C53.7258 462 0 408.274 0 342V0Z" fill="white"/>
</clipPath>
</defs>
</svg>
