<svg width="718" height="730" viewBox="0 0 718 730" fill="none" xmlns="http://www.w3.org/2000/svg">
<mask id="mask0_2006_493" style="mask-type:luminance" maskUnits="userSpaceOnUse" x="0" y="0" width="62" height="730">
<path d="M0 0.628906H61.875V729.371H0V0.628906Z" fill="white"/>
</mask>
<g mask="url(#mask0_2006_493)">
<path d="M426.227 368.535L31.2383 -30.3047L-364.352 361.465L30.6367 760.305L426.227 368.535Z" fill="white"/>
</g>
<mask id="mask1_2006_493" style="mask-type:luminance" maskUnits="userSpaceOnUse" x="489" y="667" width="153" height="63">
<path d="M489.316 667.488H641.078V729.371H489.316V667.488Z" fill="white"/>
</mask>
<g mask="url(#mask1_2006_493)">
<path d="M672.016 698.73L565.934 591.613L458.379 698.129L564.461 805.246L672.016 698.73Z" fill="white"/>
</g>
<mask id="mask2_2006_493" style="mask-type:luminance" maskUnits="userSpaceOnUse" x="489" y="0" width="153" height="63">
<path d="M489.316 0.628906H641.078V62.5117H489.316V0.628906Z" fill="white"/>
</mask>
<g mask="url(#mask2_2006_493)">
<path d="M672.016 31.8711L565.934 -75.2461L458.379 31.2695L564.461 138.387L672.016 31.8711Z" fill="white"/>
</g>
<mask id="mask3_2006_493" style="mask-type:luminance" maskUnits="userSpaceOnUse" x="30" y="0" width="153" height="63">
<path d="M30.9375 0.628906H182.695V62.5117H30.9375V0.628906Z" fill="white"/>
</mask>
<g mask="url(#mask3_2006_493)">
<path d="M213.633 31.8711L107.555 -75.2461L0 31.2695L106.082 138.387L213.633 31.8711Z" fill="white"/>
</g>
<mask id="mask4_2006_493" style="mask-type:luminance" maskUnits="userSpaceOnUse" x="123" y="0" width="63" height="730">
<path d="M123.746 0.628906H185.621V729.371H123.746V0.628906Z" fill="white"/>
</mask>
<g mask="url(#mask4_2006_493)">
<path d="M549.973 368.535L154.984 -30.3047L-240.605 361.465L154.383 760.305L549.973 368.535Z" fill="white"/>
</g>
<mask id="mask5_2006_493" style="mask-type:luminance" maskUnits="userSpaceOnUse" x="230" y="0" width="336" height="419">
<path d="M230.477 0H565.477V419H230.477V0Z" fill="white"/>
</mask>
<g mask="url(#mask5_2006_493)">
<mask id="mask6_2006_493" style="mask-type:luminance" maskUnits="userSpaceOnUse" x="230" y="0" width="336" height="419">
<path d="M268.59 418.441L565.195 0.628906H489.316L230.652 365L268.59 418.441Z" fill="white"/>
</mask>
<g mask="url(#mask6_2006_493)">
<mask id="mask7_2006_493" style="mask-type:luminance" maskUnits="userSpaceOnUse" x="230" y="0" width="336" height="419">
<path d="M268.59 418.441L565.195 0.628906H489.316L230.652 365L268.59 418.441Z" fill="white"/>
</mask>
<g mask="url(#mask7_2006_493)">
<path d="M774.09 211.562L399.547 -166.633L21.7578 207.508L396.301 585.703L774.09 211.562Z" fill="white"/>
</g>
</g>
</g>
<mask id="mask8_2006_493" style="mask-type:luminance" maskUnits="userSpaceOnUse" x="457" y="418" width="261" height="312">
<path d="M457.477 418H717.477V730H457.477V418Z" fill="white"/>
</mask>
<g mask="url(#mask8_2006_493)">
<mask id="mask9_2006_493" style="mask-type:luminance" maskUnits="userSpaceOnUse" x="458" y="418" width="259" height="312">
<path d="M458.285 471.891L641.078 729.371H716.957L496.227 418.441L458.285 471.891Z" fill="white"/>
</mask>
<g mask="url(#mask9_2006_493)">
<mask id="mask10_2006_493" style="mask-type:luminance" maskUnits="userSpaceOnUse" x="458" y="418" width="259" height="312">
<path d="M458.285 471.891L641.078 729.371H716.957L496.227 418.441L458.285 471.891Z" fill="white"/>
</mask>
<g mask="url(#mask10_2006_493)">
<path d="M872.414 575.414L588.875 289.109L302.828 572.398L586.367 858.699L872.414 575.414Z" fill="white"/>
</g>
</g>
</g>
<mask id="mask11_2006_493" style="mask-type:luminance" maskUnits="userSpaceOnUse" x="230" y="311" width="336" height="419">
<path d="M230.477 311H565.477V730H230.477V311Z" fill="white"/>
</mask>
<g mask="url(#mask11_2006_493)">
<mask id="mask12_2006_493" style="mask-type:luminance" maskUnits="userSpaceOnUse" x="230" y="311" width="336" height="419">
<path d="M306.531 365L268.594 311.559L230.652 365L265.02 413.41L489.316 729.371H565.195L306.531 365Z" fill="white"/>
</mask>
<g mask="url(#mask12_2006_493)">
<mask id="mask13_2006_493" style="mask-type:luminance" maskUnits="userSpaceOnUse" x="230" y="311" width="336" height="419">
<path d="M306.531 365L268.594 311.559L230.652 365L265.02 413.41L489.316 729.371H565.195L306.531 365Z" fill="white"/>
</mask>
<g mask="url(#mask13_2006_493)">
<path d="M774.09 522.492L399.547 144.297L21.7578 518.438L396.301 896.633L774.09 522.492Z" fill="white"/>
</g>
</g>
</g>
<mask id="mask14_2006_493" style="mask-type:luminance" maskUnits="userSpaceOnUse" x="306" y="0" width="412" height="526">
<path d="M306.477 0H717.477V526H306.477V0Z" fill="white"/>
</mask>
<g mask="url(#mask14_2006_493)">
<mask id="mask15_2006_493" style="mask-type:luminance" maskUnits="userSpaceOnUse" x="306" y="0" width="411" height="526">
<path d="M344.473 525.328L716.957 0.628906H641.078L306.531 471.891L344.473 525.328Z" fill="white"/>
</mask>
<g mask="url(#mask15_2006_493)">
<mask id="mask16_2006_493" style="mask-type:luminance" maskUnits="userSpaceOnUse" x="306" y="0" width="411" height="526">
<path d="M344.473 525.328L716.957 0.628906H641.078L306.531 471.891L344.473 525.328Z" fill="white"/>
</mask>
<g mask="url(#mask16_2006_493)">
<path d="M979.293 265.523L513.734 -204.574L44.1953 260.434L509.754 730.531L979.293 265.523Z" fill="white"/>
</g>
</g>
</g>
<mask id="mask17_2006_493" style="mask-type:luminance" maskUnits="userSpaceOnUse" x="123" y="525" width="185" height="205">
<path d="M123.477 525H307.477V730H123.477V525Z" fill="white"/>
</mask>
<g mask="url(#mask17_2006_493)">
<mask id="mask18_2006_493" style="mask-type:luminance" maskUnits="userSpaceOnUse" x="123" y="525" width="184" height="205">
<path d="M268.594 525.328L123.746 729.371H199.625L306.531 578.77L268.594 525.328Z" fill="white"/>
</mask>
<g mask="url(#mask18_2006_493)">
<mask id="mask19_2006_493" style="mask-type:luminance" maskUnits="userSpaceOnUse" x="123" y="525" width="184" height="205">
<path d="M268.594 525.328L123.746 729.371H199.625L306.531 578.77L268.594 525.328Z" fill="white"/>
</mask>
<g mask="url(#mask19_2006_493)">
<path d="M408.547 628.34L216.027 433.941L21.7305 626.359L214.254 820.758L408.547 628.34Z" fill="white"/>
</g>
</g>
</g>
</svg>
